<?xml version="1.0" encoding="UTF-8"?>
<svg height="16px" viewBox="0 0 16 16" width="16px" xmlns="http://www.w3.org/2000/svg">
    <g fill="#666666">
        <path d="m 2.832031 0.945312 c -1.023437 0 -1.847656 0.683594 -1.847656 1.53125 v 8.945313 c 0 0.847656 0.824219 1.535156 1.847656 1.535156 h 10.363281 c 1.023438 0 1.847657 -0.6875 1.847657 -1.535156 v -8.945313 c 0 -0.847656 -0.824219 -1.53125 -1.847657 -1.53125 z m 0.972657 2.074219 h 8.378906 c 0.476562 0 0.859375 0.386719 0.859375 0.863281 v 1.171876 c 0 0.480468 -0.382813 0.863281 -0.859375 0.863281 h -8.378906 c -0.476563 0 -0.855469 -0.382813 -0.855469 -0.863281 v -1.171876 c 0 -0.476562 0.378906 -0.863281 0.855469 -0.863281 z m 0.019531 5.070313 h 8.363281 c 0.472656 0 0.855469 0.378906 0.855469 0.855468 v 1.164063 c 0 0.472656 -0.382813 0.855469 -0.855469 0.855469 h -8.363281 c -0.472657 0 -0.855469 -0.382813 -0.855469 -0.855469 v -1.164063 c 0 -0.476562 0.382812 -0.855468 0.855469 -0.855468 z m 0 0"/>
        <path d="m 10.753906 10.964844 h 1.582032 c 0.410156 0 0.746093 0.332031 0.746093 0.742187 v 2.699219 c 0 0.410156 -0.335937 0.742188 -0.746093 0.742188 h -1.582032 c -0.414062 0 -0.746094 -0.332032 -0.746094 -0.742188 v -2.699219 c 0 -0.410156 0.332032 -0.742187 0.746094 -0.742187 z m 0 0"/>
        <path d="m 3.785156 10.953125 h 1.457032 c 0.402343 0 0.734374 0.332031 0.734374 0.734375 v 2.664062 c 0 0.40625 -0.332031 0.734376 -0.734374 0.734376 h -1.457032 c -0.40625 0 -0.734375 -0.328126 -0.734375 -0.734376 v -2.664062 c 0 -0.402344 0.328125 -0.734375 0.734375 -0.734375 z m 0 0"/>
    </g>
</svg>
