<?xml version="1.0" encoding="UTF-8"?>
<svg height="128px" viewBox="0 0 128 128" width="128px" xmlns="http://www.w3.org/2000/svg" xmlns:xlink="http://www.w3.org/1999/xlink">
    <linearGradient id="a" gradientUnits="userSpaceOnUse" spreadMethod="reflect" x1="11.85086" x2="115.989807" y1="64.022781" y2="64.022781">
        <stop offset="0" stop-color="#deddda"/>
        <stop offset="0.0500001" stop-color="#ffffff"/>
        <stop offset="0.099807" stop-color="#deddda"/>
        <stop offset="0.900001" stop-color="#deddda"/>
        <stop offset="0.950001" stop-color="#ffffff"/>
        <stop offset="1" stop-color="#deddda"/>
    </linearGradient>
    <path d="m 21.078125 11.996094 h 85.683594 c 5.097656 0 9.226562 4.132812 9.226562 9.230468 v 85.59375 c 0 5.097657 -4.128906 9.230469 -9.226562 9.230469 h -85.683594 c -5.09375 0 -9.226563 -4.132812 -9.226563 -9.230469 v -85.59375 c 0 -5.097656 4.132813 -9.230468 9.226563 -9.230468 z m 0 0" fill="url(#a)"/>
    <path d="m 21 11.890625 h 85.75 c 5.132812 0 9.296875 4.164063 9.296875 9.296875 v 81.441406 c 0 5.132813 -4.164063 9.296875 -9.296875 9.296875 h -85.75 c -5.132812 0 -9.296875 -4.164062 -9.296875 -9.296875 v -81.441406 c 0 -5.132812 4.164063 -9.296875 9.296875 -9.296875 z m 0 0" fill="#f6f5f4"/>
    <path d="m 19.171875 80.039062 h 89.636719 c 1.683594 0 3.046875 1.363282 3.046875 3.046876 v 17.914062 c 0 1.683594 -1.363281 3.050781 -3.046875 3.050781 h -89.636719 c -1.683594 0 -3.050781 -1.367187 -3.050781 -3.050781 v -17.914062 c 0 -1.683594 1.367187 -3.046876 3.050781 -3.046876 z m 0 0" fill="#865e3c"/>
    <path d="m 19.171875 16.039062 h 89.636719 c 1.683594 0 3.046875 1.363282 3.046875 3.046876 v 17.914062 c 0 1.683594 -1.363281 3.050781 -3.046875 3.050781 h -89.636719 c -1.683594 0 -3.050781 -1.367187 -3.050781 -3.050781 v -17.914062 c 0 -1.683594 1.367187 -3.046876 3.050781 -3.046876 z m 0 0" fill="#26a269"/>
    <path d="m 18.863281 16.039062 h 90.25 c 1.515625 0 2.742188 1.226563 2.742188 2.742188 v 16.101562 c 0 1.515626 -1.226563 2.742188 -2.742188 2.742188 h -90.25 c -1.515625 0 -2.742187 -1.226562 -2.742187 -2.742188 v -16.101562 c 0 -1.515625 1.226562 -2.742188 2.742187 -2.742188 z m 0 0" fill="#2ec27e"/>
    <g fill="#3d3846">
        <path d="m 75.988281 25.046875 l 0.003907 -2.273437 c 0 -1.0625 0.863281 -1.921876 1.925781 -1.921876 l 20.34375 0.007813 c 1.0625 0.003906 1.921875 0.863281 1.921875 1.925781 l -0.003906 2.273438 c 0 1.0625 -0.863282 1.925781 -1.925782 1.925781 l -20.34375 -0.011719 c -1.0625 0 -1.921875 -0.863281 -1.921875 -1.925781 z m 0 0"/>
        <path d="m 27.625 20.8125 h 2.390625 c 1.066406 0 1.929687 0.863281 1.929687 1.933594 v 10.425781 c 0 1.070313 -0.863281 1.933594 -1.929687 1.933594 h -2.390625 c -1.066406 0 -1.933594 -0.863281 -1.933594 -1.933594 v -10.425781 c 0 -1.070313 0.867188 -1.933594 1.933594 -1.933594 z m 0 0"/>
        <path d="m 39.625 20.8125 h 2.390625 c 1.066406 0 1.929687 0.863281 1.929687 1.933594 v 10.425781 c 0 1.070313 -0.863281 1.933594 -1.929687 1.933594 h -2.390625 c -1.066406 0 -1.933594 -0.863281 -1.933594 -1.933594 v -10.425781 c 0 -1.070313 0.867188 -1.933594 1.933594 -1.933594 z m 0 0"/>
        <path d="m 51.625 20.8125 h 2.390625 c 1.066406 0 1.929687 0.863281 1.929687 1.933594 v 10.425781 c 0 1.070313 -0.863281 1.933594 -1.929687 1.933594 h -2.390625 c -1.066406 0 -1.933594 -0.863281 -1.933594 -1.933594 v -10.425781 c 0 -1.070313 0.867188 -1.933594 1.933594 -1.933594 z m 0 0"/>
    </g>
    <path d="m 18.863281 80.039062 h 90.25 c 1.515625 0 2.742188 1.226563 2.742188 2.742188 v 16.101562 c 0 1.515626 -1.226563 2.742188 -2.742188 2.742188 h -90.25 c -1.515625 0 -2.742187 -1.226562 -2.742187 -2.742188 v -16.101562 c 0 -1.515625 1.226562 -2.742188 2.742187 -2.742188 z m 0 0" fill="#986a44"/>
    <path d="m 19.171875 48.039062 h 89.636719 c 1.683594 0 3.046875 1.363282 3.046875 3.046876 v 17.914062 c 0 1.683594 -1.363281 3.050781 -3.046875 3.050781 h -89.636719 c -1.683594 0 -3.050781 -1.367187 -3.050781 -3.050781 v -17.914062 c 0 -1.683594 1.367187 -3.046876 3.050781 -3.046876 z m 0 0" fill="#865e3c"/>
    <path d="m 18.863281 48.039062 h 90.25 c 1.515625 0 2.742188 1.226563 2.742188 2.742188 v 16.101562 c 0 1.515626 -1.226563 2.742188 -2.742188 2.742188 h -90.25 c -1.515625 0 -2.742187 -1.226562 -2.742187 -2.742188 v -16.101562 c 0 -1.515625 1.226562 -2.742188 2.742187 -2.742188 z m 0 0" fill="#986a44"/>
    <path d="m 75.988281 24.023438 l 0.003907 -3.265626 c 0 -1.0625 0.863281 -1.925781 1.925781 -1.921874 l 20.34375 0.007812 c 1.0625 0.003906 1.921875 0.863281 1.921875 1.925781 l -0.003906 3.269531 c 0 1.0625 -0.863282 1.921876 -1.925782 1.921876 l -20.34375 -0.011719 c -1.0625 0 -1.921875 -0.863281 -1.921875 -1.925781 z m 0 0" fill="#5e5c64"/>
    <path d="m 27.753906 18.796875 h 2.128906 c 1.140626 0 2.0625 0.921875 2.0625 2.0625 v 11.125 c 0 1.140625 -0.921874 2.066406 -2.0625 2.066406 h -2.128906 c -1.136718 0 -2.0625 -0.925781 -2.0625 -2.066406 v -11.125 c 0 -1.140625 0.925782 -2.0625 2.0625 -2.0625 z m 0 0" fill="#5e5c64"/>
    <path d="m 39.753906 18.796875 h 2.128906 c 1.140626 0 2.0625 0.921875 2.0625 2.0625 v 11.125 c 0 1.140625 -0.921874 2.066406 -2.0625 2.066406 h -2.128906 c -1.136718 0 -2.0625 -0.925781 -2.0625 -2.066406 v -11.125 c 0 -1.140625 0.925782 -2.0625 2.0625 -2.0625 z m 0 0" fill="#5e5c64"/>
    <path d="m 51.753906 18.796875 h 2.128906 c 1.140626 0 2.0625 0.921875 2.0625 2.0625 v 11.125 c 0 1.140625 -0.921874 2.066406 -2.0625 2.066406 h -2.128906 c -1.136718 0 -2.0625 -0.925781 -2.0625 -2.066406 v -11.125 c 0 -1.140625 0.925782 -2.0625 2.0625 -2.0625 z m 0 0" fill="#5e5c64"/>
    <path d="m 75.988281 57.046875 l 0.003907 -2.273437 c 0 -1.0625 0.863281 -1.921876 1.925781 -1.921876 l 20.34375 0.007813 c 1.0625 0.003906 1.921875 0.863281 1.921875 1.925781 l -0.003906 2.273438 c 0 1.0625 -0.863282 1.925781 -1.925782 1.925781 l -20.34375 -0.011719 c -1.0625 0 -1.921875 -0.863281 -1.921875 -1.925781 z m 0 0" fill="#3d3846"/>
    <path d="m 27.625 52.8125 h 2.390625 c 1.066406 0 1.929687 0.863281 1.929687 1.933594 v 10.425781 c 0 1.070313 -0.863281 1.933594 -1.929687 1.933594 h -2.390625 c -1.066406 0 -1.933594 -0.863281 -1.933594 -1.933594 v -10.425781 c 0 -1.070313 0.867188 -1.933594 1.933594 -1.933594 z m 0 0" fill="#3d3846"/>
    <path d="m 39.625 52.8125 h 2.390625 c 1.066406 0 1.929687 0.863281 1.929687 1.933594 v 10.425781 c 0 1.070313 -0.863281 1.933594 -1.929687 1.933594 h -2.390625 c -1.066406 0 -1.933594 -0.863281 -1.933594 -1.933594 v -10.425781 c 0 -1.070313 0.867188 -1.933594 1.933594 -1.933594 z m 0 0" fill="#3d3846"/>
    <path d="m 51.625 52.8125 h 2.390625 c 1.066406 0 1.929687 0.863281 1.929687 1.933594 v 10.425781 c 0 1.070313 -0.863281 1.933594 -1.929687 1.933594 h -2.390625 c -1.066406 0 -1.933594 -0.863281 -1.933594 -1.933594 v -10.425781 c 0 -1.070313 0.867188 -1.933594 1.933594 -1.933594 z m 0 0" fill="#3d3846"/>
    <path d="m 75.988281 56.023438 l 0.003907 -3.265626 c 0 -1.0625 0.863281 -1.925781 1.925781 -1.921874 l 20.34375 0.007812 c 1.0625 0.003906 1.921875 0.863281 1.921875 1.925781 l -0.003906 3.269531 c 0 1.0625 -0.863282 1.921876 -1.925782 1.921876 l -20.34375 -0.011719 c -1.0625 0 -1.921875 -0.863281 -1.921875 -1.925781 z m 0 0" fill="#5e5c64"/>
    <path d="m 27.753906 50.796875 h 2.128906 c 1.140626 0 2.0625 0.921875 2.0625 2.0625 v 11.125 c 0 1.140625 -0.921874 2.066406 -2.0625 2.066406 h -2.128906 c -1.136718 0 -2.0625 -0.925781 -2.0625 -2.066406 v -11.125 c 0 -1.140625 0.925782 -2.0625 2.0625 -2.0625 z m 0 0" fill="#5e5c64"/>
    <path d="m 39.753906 50.796875 h 2.128906 c 1.140626 0 2.0625 0.921875 2.0625 2.0625 v 11.125 c 0 1.140625 -0.921874 2.066406 -2.0625 2.066406 h -2.128906 c -1.136718 0 -2.0625 -0.925781 -2.0625 -2.066406 v -11.125 c 0 -1.140625 0.925782 -2.0625 2.0625 -2.0625 z m 0 0" fill="#5e5c64"/>
    <path d="m 51.753906 50.796875 h 2.128906 c 1.140626 0 2.0625 0.921875 2.0625 2.0625 v 11.125 c 0 1.140625 -0.921874 2.066406 -2.0625 2.066406 h -2.128906 c -1.136718 0 -2.0625 -0.925781 -2.0625 -2.066406 v -11.125 c 0 -1.140625 0.925782 -2.0625 2.0625 -2.0625 z m 0 0" fill="#5e5c64"/>
    <path d="m 75.988281 89.046875 l 0.003907 -2.273437 c 0 -1.0625 0.863281 -1.921876 1.925781 -1.921876 l 20.34375 0.007813 c 1.0625 0.003906 1.921875 0.863281 1.921875 1.925781 l -0.003906 2.273438 c 0 1.0625 -0.863282 1.925781 -1.925782 1.925781 l -20.34375 -0.011719 c -1.0625 0 -1.921875 -0.863281 -1.921875 -1.925781 z m 0 0" fill="#3d3846"/>
    <path d="m 27.625 84.8125 h 2.390625 c 1.066406 0 1.929687 0.863281 1.929687 1.933594 v 10.425781 c 0 1.066406 -0.863281 1.933594 -1.929687 1.933594 h -2.390625 c -1.066406 0 -1.933594 -0.867188 -1.933594 -1.933594 v -10.425781 c 0 -1.070313 0.867188 -1.933594 1.933594 -1.933594 z m 0 0" fill="#3d3846"/>
    <path d="m 39.625 84.8125 h 2.390625 c 1.066406 0 1.929687 0.863281 1.929687 1.933594 v 10.425781 c 0 1.066406 -0.863281 1.933594 -1.929687 1.933594 h -2.390625 c -1.066406 0 -1.933594 -0.867188 -1.933594 -1.933594 v -10.425781 c 0 -1.070313 0.867188 -1.933594 1.933594 -1.933594 z m 0 0" fill="#3d3846"/>
    <path d="m 51.625 84.8125 h 2.390625 c 1.066406 0 1.929687 0.863281 1.929687 1.933594 v 10.425781 c 0 1.066406 -0.863281 1.933594 -1.929687 1.933594 h -2.390625 c -1.066406 0 -1.933594 -0.867188 -1.933594 -1.933594 v -10.425781 c 0 -1.070313 0.867188 -1.933594 1.933594 -1.933594 z m 0 0" fill="#3d3846"/>
    <path d="m 75.988281 88.023438 l 0.003907 -3.265626 c 0 -1.0625 0.863281 -1.925781 1.925781 -1.921874 l 20.34375 0.007812 c 1.0625 0.003906 1.921875 0.863281 1.921875 1.925781 l -0.003906 3.269531 c 0 1.0625 -0.863282 1.921876 -1.925782 1.921876 l -20.34375 -0.011719 c -1.0625 0 -1.921875 -0.863281 -1.921875 -1.925781 z m 0 0" fill="#5e5c64"/>
    <path d="m 27.753906 82.796875 h 2.128906 c 1.140626 0 2.0625 0.921875 2.0625 2.0625 v 11.125 c 0 1.140625 -0.921874 2.066406 -2.0625 2.066406 h -2.128906 c -1.136718 0 -2.0625 -0.925781 -2.0625 -2.066406 v -11.125 c 0 -1.140625 0.925782 -2.0625 2.0625 -2.0625 z m 0 0" fill="#5e5c64"/>
    <path d="m 39.753906 82.796875 h 2.128906 c 1.140626 0 2.0625 0.921875 2.0625 2.0625 v 11.125 c 0 1.140625 -0.921874 2.066406 -2.0625 2.066406 h -2.128906 c -1.136718 0 -2.0625 -0.925781 -2.0625 -2.066406 v -11.125 c 0 -1.140625 0.925782 -2.0625 2.0625 -2.0625 z m 0 0" fill="#5e5c64"/>
    <path d="m 51.753906 82.796875 h 2.128906 c 1.140626 0 2.0625 0.921875 2.0625 2.0625 v 11.125 c 0 1.140625 -0.921874 2.066406 -2.0625 2.066406 h -2.128906 c -1.136718 0 -2.0625 -0.925781 -2.0625 -2.066406 v -11.125 c 0 -1.140625 0.925782 -2.0625 2.0625 -2.0625 z m 0 0" fill="#5e5c64"/>
    <path d="m 89.417969 109.753906 h 5.089843 c 0.835938 0 1.515626 0.679688 1.515626 1.515625 v 7.273438 c 0 0.835937 -0.679688 1.515625 -1.515626 1.515625 h -5.089843 c -0.839844 0 -1.519531 -0.679688 -1.519531 -1.515625 v -7.273438 c 0 -0.835937 0.679687 -1.515625 1.519531 -1.515625 z m 0 0" fill="#c0bfbc"/>
    <path d="m 89.402344 107.753906 h 5.117187 c 0.832031 0 1.503907 0.671875 1.503907 1.5 v 7.207032 c 0 0.828124 -0.671876 1.5 -1.503907 1.5 h -5.117187 c -0.828125 0 -1.503906 -0.671876 -1.503906 -1.5 v -7.207032 c 0 -0.828125 0.675781 -1.5 1.503906 -1.5 z m 0 0" fill="#f6f5f4"/>
    <path d="m 33.417969 109.753906 h 5.089843 c 0.835938 0 1.515626 0.679688 1.515626 1.515625 v 7.273438 c 0 0.835937 -0.679688 1.515625 -1.515626 1.515625 h -5.089843 c -0.839844 0 -1.519531 -0.679688 -1.519531 -1.515625 v -7.273438 c 0 -0.835937 0.679687 -1.515625 1.519531 -1.515625 z m 0 0" fill="#c0bfbc"/>
    <path d="m 33.402344 107.753906 h 5.117187 c 0.832031 0 1.503907 0.671875 1.503907 1.5 v 7.207032 c 0 0.828124 -0.671876 1.5 -1.503907 1.5 h -5.117187 c -0.828125 0 -1.503906 -0.671876 -1.503906 -1.5 v -7.207032 c 0 -0.828125 0.675781 -1.5 1.503906 -1.5 z m 0 0" fill="#f6f5f4"/>
</svg>
