<?xml version="1.0" encoding="UTF-8"?>
<svg version="1.1" xmlns="http://www.w3.org/2000/svg" width="1024" height="1024">
<path d="M0 0 C337.92 0 675.84 0 1024 0 C1024 337.92 1024 675.84 1024 1024 C686.08 1024 348.16 1024 0 1024 C0 686.08 0 348.16 0 0 Z " fill="#FAFAFA" transform="translate(0,0)"/>
<path d="M0 0 C0.84138487 -0.00290688 1.68276974 -0.00581376 2.54965112 -0.00880873 C5.39386716 -0.01615866 8.23787083 -0.00914223 11.08208561 -0.002285 C13.13185092 -0.00458747 15.1816154 -0.00776254 17.23137814 -0.01173949 C22.88348208 -0.02012567 28.53551889 -0.01594494 34.18762314 -0.00976706 C40.27564308 -0.0052591 46.36365113 -0.01221808 52.45166874 -0.0177269 C63.69553574 -0.02612473 74.93938113 -0.02537088 86.1832477 -0.01990396 C96.57001131 -0.01487841 106.95676703 -0.01355684 117.34353161 -0.01594925 C118.03175924 -0.01610202 118.71998687 -0.01625479 119.42906989 -0.01641219 C122.2226238 -0.01703484 125.01617771 -0.01767164 127.80973161 -0.01833172 C154.03158102 -0.02445383 180.25341671 -0.0188964 206.475264 -0.00813792 C229.78415838 0.00135268 253.0930309 0.00050539 276.40192509 -0.00905991 C302.5734451 -0.01976397 328.74495298 -0.02401864 354.91647488 -0.01783538 C357.70533184 -0.01719392 360.4941888 -0.01656824 363.28304577 -0.01594925 C363.96976236 -0.01579109 364.65647896 -0.01563294 365.36400515 -0.01546999 C375.74487291 -0.01319279 386.12573192 -0.01585981 396.50659847 -0.02090836 C408.30811211 -0.02661909 420.10960487 -0.02502079 431.91111689 -0.01434687 C437.93681606 -0.00907721 443.96247079 -0.00705534 449.98816967 -0.01364517 C455.49823309 -0.01958011 461.00821064 -0.01637032 466.51826621 -0.00569007 C468.51756067 -0.00344556 470.5168623 -0.00461567 472.5161522 -0.00944164 C475.22239031 -0.0154758 477.92832979 -0.00933354 480.634552 0 C481.42054609 -0.00468233 482.20654018 -0.00936466 483.01635227 -0.01418889 C486.78569761 0.01200109 489.68369934 0.13251495 492.88019657 2.25168228 C492.88019657 2.91168228 492.88019657 3.57168228 492.88019657 4.25168228 C493.74644657 4.37543228 493.74644657 4.37543228 494.63019657 4.50168228 C497.55033987 5.47506338 498.89807451 6.92781503 500.88019657 9.25168228 C501.21019657 10.24168228 501.54019657 11.23168228 501.88019657 12.25168228 C502.54019657 12.58168228 503.20019657 12.91168228 503.88019657 13.25168228 C503.88019657 14.57168228 503.88019657 15.89168228 503.88019657 17.25168228 C504.54019657 17.25168228 505.20019657 17.25168228 505.88019657 17.25168228 C505.91442797 68.06279067 505.9462699 118.8738999 505.96488285 169.68501663 C505.96515896 170.43685008 505.96543508 171.18868353 505.96571956 171.96329981 C505.97170516 188.30205217 505.97724555 204.64080465 505.98232723 220.97955731 C505.98482194 228.99189652 505.98741504 237.0042357 505.99005985 245.01657486 C505.99032137 245.81390554 505.99058289 246.61123623 505.99085233 247.43272845 C505.9993774 273.2837709 506.01440179 299.13480462 506.03279101 324.98584179 C506.05165158 351.54767893 506.06396639 378.10951123 506.06802655 404.67135496 C506.06860287 408.42168663 506.06925415 412.17201828 506.06995106 415.92234993 C506.0700859 416.66048033 506.07022075 417.39861072 506.07035968 418.1591087 C506.07272455 430.04843934 506.08200454 441.93775504 506.09386064 453.82707958 C506.10562829 465.77533651 506.11013424 477.72357862 506.10719933 489.67184115 C506.10591488 496.14750264 506.10792164 502.62312022 506.11860752 509.09877396 C506.12831333 515.02360098 506.12884885 520.94835444 506.12199436 526.87318479 C506.12114672 529.01999917 506.12370632 531.16681807 506.12996294 533.3136235 C506.13795941 536.22606346 506.13368063 539.13823592 506.12629223 542.05067158 C506.13154626 542.88900295 506.13680028 543.72733432 506.14221352 544.59106967 C506.11385851 549.51927707 505.45451958 553.57495427 503.88019657 558.25168228 C503.22019657 558.25168228 502.56019657 558.25168228 501.88019657 558.25168228 C501.67394657 558.97355728 501.46769657 559.69543228 501.25519657 560.43918228 C499.40490669 564.22386612 497.27779219 565.77426881 493.88019657 568.25168228 C493.22019657 568.25168228 492.56019657 568.25168228 491.88019657 568.25168228 C491.88019657 568.91168228 491.88019657 569.57168228 491.88019657 570.25168228 C488.24786555 571.46245929 484.9289767 571.37612392 481.14972782 571.34933853 C480.39930714 571.34792358 479.64888645 571.34650864 478.87572575 571.34505081 C476.48134197 571.33945788 474.08705204 571.32690672 471.69269657 571.31418228 C470.06834896 571.30916637 468.44399989 571.30460362 466.8196497 571.30051041 C462.83976683 571.29034208 458.86008664 571.2707654 454.88019657 571.25168228 C454.88019657 576.53168228 454.88019657 581.81168228 454.88019657 587.25168228 C453.89019657 587.25168228 452.90019657 587.25168228 451.88019657 587.25168228 C451.55019657 588.24168228 451.22019657 589.23168228 450.88019657 590.25168228 C443.67206641 590.3529457 436.46411905 590.42309007 429.25544071 590.47140884 C426.80224598 590.49154762 424.34909938 590.51886046 421.89606571 590.55344009 C418.37372824 590.6018571 414.85202434 590.62462857 411.32941532 590.64230728 C409.67929699 590.67327499 409.67929699 590.67327499 407.99584293 590.70486832 C406.97501118 590.70517044 405.95417942 590.70547256 404.90241337 590.70578384 C404.00306568 590.71466629 403.10371799 590.72354874 402.17711735 590.73270035 C399.88019657 590.25168228 399.88019657 590.25168228 396.88019657 586.25168228 C396.88019657 581.30168228 396.88019657 576.35168228 396.88019657 571.25168228 C293.59019657 571.25168228 190.30019657 571.25168228 83.88019657 571.25168228 C83.88019657 576.20168228 83.88019657 581.15168228 83.88019657 586.25168228 C79.88019657 591.25168228 79.88019657 591.25168228 77.56586552 591.88660049 C76.71633305 591.89057846 75.86680058 591.89455643 74.9915247 591.89865494 C73.53981876 591.92229614 73.53981876 591.92229614 72.05878544 591.94641495 C71.02016361 591.93629379 69.98154179 591.92617264 68.91144657 591.91574478 C67.83898685 591.92052841 66.76652714 591.92531204 65.66156864 591.93024063 C63.39539974 591.93364124 61.12918189 591.92442768 58.86310673 591.90353775 C55.39243124 591.87677662 51.92499009 591.90328236 48.45441532 591.93527603 C46.25258526 591.93197196 44.05075721 591.9255658 41.84894657 591.91574478 C40.81032475 591.92586594 39.77170292 591.93598709 38.7016077 591.94641495 C37.73380375 591.93065414 36.76599979 591.91489334 35.76886845 591.89865494 C34.91933598 591.89467697 34.0698035 591.89069901 33.19452763 591.88660049 C30.88019657 591.25168228 30.88019657 591.25168228 26.88019657 586.25168228 C26.88019657 581.30168228 26.88019657 576.35168228 26.88019657 571.25168228 C15.66019657 571.25168228 4.44019657 571.25168228 -7.11980343 571.25168228 C-7.11980343 570.59168228 -7.11980343 569.93168228 -7.11980343 569.25168228 C-8.17167843 569.02480728 -9.22355343 568.79793228 -10.30730343 568.56418228 C-15.96099974 566.90333789 -18.77971745 563.05975583 -21.72943932 558.15978652 C-24.39651024 553.2567136 -24.82347958 549.29194358 -24.7406292 543.78451443 C-24.75018182 542.41328267 -24.75018182 542.41328267 -24.75992742 541.01434925 C-24.77513876 537.95834357 -24.75478804 534.90363629 -24.73453426 531.84767532 C-24.73814791 529.63186111 -24.74395218 527.41604957 -24.75175625 525.20024616 C-24.76681309 519.11690783 -24.75068852 513.03399058 -24.72944963 506.95068538 C-24.71376806 501.06244417 -24.72160056 495.17426532 -24.72878989 489.28601451 C-24.74264322 477.24308082 -24.73298539 465.20027264 -24.70958424 453.15735817 C-24.68643217 441.2328899 -24.67277739 429.30847716 -24.67206669 417.38398552 C-24.67201324 416.6421028 -24.67195979 415.90022008 -24.67190472 415.13585607 C-24.67171611 412.12435912 -24.67159455 409.11286217 -24.6715624 406.10136522 C-24.67122165 377.85749141 -24.64416717 349.61370213 -24.6033703 321.36986064 C-24.56722621 296.26755318 -24.54810622 271.16529487 -24.54534054 246.06296158 C-24.54524903 245.2644636 -24.54515753 244.46596562 -24.54506325 243.64327073 C-24.54478682 241.22760143 -24.54451533 238.81193213 -24.54424423 236.39626282 C-24.5438812 233.18786315 -24.5435078 229.97946348 -24.54312706 226.7710638 C-24.54303683 225.97941597 -24.54294661 225.18776814 -24.54285365 224.37213098 C-24.53987375 199.65092847 -24.52241127 174.92973511 -24.50243945 150.20854124 C-24.49582019 142.00398358 -24.49013221 133.79942737 -24.48724914 125.59486747 C-24.48698796 124.85565416 -24.48672679 124.11644085 -24.4864577 123.35482714 C-24.48619857 122.61710068 -24.48593944 121.87937421 -24.48567247 121.1192924 C-24.48068123 106.92719647 -24.46949437 92.73513688 -24.44437217 78.54306092 C-24.43312562 72.0555652 -24.42503717 65.56810713 -24.42550564 59.08060074 C-24.4258127 53.14887404 -24.41694139 47.21723655 -24.40053762 41.28553317 C-24.39619956 39.13299036 -24.39526323 36.98043763 -24.3979637 34.82789215 C-24.40110383 31.91503639 -24.39208906 29.00247016 -24.37986565 26.08964443 C-24.38369044 25.24279596 -24.38751523 24.39594748 -24.39145592 23.52343693 C-24.33924503 16.51769203 -24.33924503 16.51769203 -22.11980343 13.25168228 C-21.45980343 13.25168228 -20.79980343 13.25168228 -20.11980343 13.25168228 C-20.11980343 12.55043228 -20.11980343 11.84918228 -20.11980343 11.12668228 C-18.56158478 6.64680365 -14.96547312 4.80299233 -11.11980343 2.25168228 C-7.34397148 -0.26553902 -4.37236594 -0.02596975 0 0 Z " fill="#444D57" transform="translate(271.1198034286499,217.74831771850586)"/>
<path d="M0 0 C0.73452734 -0.00115384 1.46905468 -0.00230769 2.22584042 -0.0034965 C4.70646702 -0.00615988 7.18702974 -0.00164326 9.66765308 0.00279331 C11.45628096 0.00235755 13.24490878 0.00148256 15.03353626 0.00020415 C19.96364777 -0.0020399 24.8937377 0.00197926 29.82384646 0.00698221 C35.13468179 0.01128779 40.44551584 0.00984021 45.75635242 0.00907993 C54.96275783 0.00855477 64.16915618 0.0117008 73.37555981 0.01731777 C86.68658813 0.02543376 99.99761303 0.02804809 113.30864356 0.02930576 C134.90323498 0.03149613 156.49782262 0.03815579 178.09241199 0.04760838 C199.07353159 0.0567829 220.05465017 0.06386354 241.03577137 0.06811619 C242.32835228 0.06837891 243.6209332 0.06864164 244.95268323 0.06891232 C251.43697418 0.07021733 257.92126513 0.07148104 264.40555608 0.07272422 C318.22655168 0.08309635 372.04754318 0.10071424 425.86853504 0.12304783 C425.86853504 0.78304783 425.86853504 1.44304783 425.86853504 2.12304783 C426.79666004 2.04054783 427.72478504 1.95804783 428.68103504 1.87304783 C431.86853504 2.12304783 431.86853504 2.12304783 433.74353504 3.99804783 C434.86853504 6.12304783 434.86853504 6.12304783 434.86853504 8.12304783 C435.85853504 8.45304783 436.84853504 8.78304783 437.86853504 9.12304783 C439.15430324 12.98035242 438.99964963 16.61485665 438.98206043 20.63354588 C438.98220646 21.50205173 438.98235249 22.37055759 438.98250294 23.26538181 C438.9818058 26.1385354 438.97402265 29.0116243 438.96619129 31.88476658 C438.96432641 33.87588052 438.96290284 35.86699491 438.96190357 37.85810947 C438.95808394 43.10077269 438.94825836 48.34340824 438.93719959 53.58606052 C438.92697358 58.93497436 438.9224034 64.28389266 438.91736317 69.63281345 C438.90663562 80.12957041 438.88956582 90.62630682 438.86853504 101.12304783 C438.20853504 101.12304783 437.54853504 101.12304783 436.86853504 101.12304783 C436.80666004 101.84492283 436.74478504 102.56679783 436.68103504 103.31054783 C435.60660839 107.029717 433.81120511 108.67082277 430.86853504 111.12304783 C429.87853504 111.12304783 428.88853504 111.12304783 427.86853504 111.12304783 C427.86853504 111.78304783 427.86853504 112.44304783 427.86853504 113.12304783 C372.55425422 113.21455154 317.23998103 113.28506021 261.92563944 113.32730915 C255.39911754 113.33231213 248.87259579 113.3374894 242.3460741 113.34277439 C240.39705876 113.34434825 240.39705876 113.34434825 238.40866937 113.34595391 C217.35445621 113.36337144 196.30028662 113.39491655 175.24609934 113.43165901 C153.65153611 113.46903093 132.05699575 113.49127574 110.46240151 113.49940181 C97.13138635 113.50489736 83.80049433 113.52227071 70.46951707 113.5547137 C61.33489232 113.57581529 52.20033149 113.58225776 43.06568412 113.57705334 C37.79106223 113.57448478 32.51665592 113.57849365 27.24207211 113.59986973 C22.41574026 113.61928687 17.58976965 113.62034931 12.76342143 113.60664341 C11.01500136 113.60494862 9.26655906 113.61006371 7.51818298 113.62258056 C5.1451372 113.63858526 2.77340304 113.63001243 0.40037823 113.61523914 C-0.9187702 113.61675802 -2.23791863 113.61827691 -3.59704125 113.61984181 C-9.85758775 112.73986757 -14.06319432 108.77249998 -18.13146496 104.12304783 C-19.45516074 100.07448966 -19.2791433 95.97805256 -19.27672863 91.76196384 C-19.28008724 90.92085056 -19.28344585 90.07973728 -19.28690624 89.21313572 C-19.29640043 86.43439346 -19.2983585 83.65571155 -19.29943371 80.87695408 C-19.30264706 78.94408741 -19.30601119 77.01122099 -19.30951977 75.07835484 C-19.31550699 71.02741017 -19.31736005 66.97648684 -19.31676769 62.92553806 C-19.31666603 57.73584579 -19.33032478 52.54629019 -19.3475399 47.35663033 C-19.3586596 43.36491868 -19.36068692 39.3732401 -19.36015797 35.38151455 C-19.36133787 33.46816569 -19.36576025 31.55481596 -19.37349033 29.64148235 C-19.38329072 26.9653996 -19.3804121 24.28961391 -19.37438488 21.61352634 C-19.38000439 20.82427265 -19.38562389 20.03501896 -19.39141369 19.22184849 C-19.35726056 13.25247228 -18.60252937 9.77799529 -14.63146496 5.31054783 C-12.13146496 3.12304783 -12.13146496 3.12304783 -10.13146496 3.12304783 C-10.13146496 2.46304783 -10.13146496 1.80304783 -10.13146496 1.12304783 C-6.57387898 -0.06281416 -3.75749936 -0.00108567 0 0 Z " fill="#E8E9E9" transform="translate(301.1314649581909,240.87695217132568)"/>
<path d="M0 0 C1.11018404 -0.00961943 1.11018404 -0.00961943 2.24279603 -0.0194332 C4.7187443 -0.03601439 7.19372251 -0.02419305 9.66968632 -0.01244164 C11.46432079 -0.01848394 13.25895012 -0.02626254 15.05357033 -0.03562677 C19.9820834 -0.05621387 24.91030594 -0.05181642 29.83884299 -0.04326558 C35.15524642 -0.03833604 40.47157945 -0.05635317 45.78795719 -0.07134056 C56.20183687 -0.09685199 66.61561346 -0.10041984 77.02951913 -0.09574004 C85.49277811 -0.09217555 93.95600575 -0.09566895 102.41926098 -0.10418892 C103.62328491 -0.1053793 104.82730883 -0.10656968 106.06781833 -0.10779613 C108.51369675 -0.1102196 110.95957516 -0.11264786 113.40545357 -0.11508088 C136.34763713 -0.13683841 159.28976192 -0.13250363 182.2319488 -0.12031119 C203.226218 -0.10997071 224.22030166 -0.13248809 245.21453416 -0.17050762 C266.76640849 -0.20923816 288.318195 -0.22578115 309.87010437 -0.21826112 C321.97191349 -0.21443323 334.07356465 -0.21944975 346.17534542 -0.2476902 C356.47694622 -0.27148633 366.77829182 -0.27436317 377.07989603 -0.25010987 C382.3366684 -0.23831038 387.59297363 -0.23619301 392.84971523 -0.26011467 C397.66187093 -0.28175889 402.4731674 -0.27571554 407.28528226 -0.2475913 C409.02611858 -0.24227692 410.76702145 -0.24709486 412.50779264 -0.26306303 C428.22909461 -0.39726666 428.22909461 -0.39726666 434.03696752 4.94831705 C438.53602476 10.22561567 438.79416405 14.92071336 438.70803165 21.54361916 C438.70846973 22.43207024 438.70890781 23.32052132 438.70935917 24.23589516 C438.70727751 27.15787044 438.6839758 30.07926425 438.66042423 33.00113869 C438.65482607 35.03280257 438.65055701 37.06447052 438.64756107 39.09613991 C438.63612971 44.43256836 438.6066771 49.76875024 438.57344913 55.10508156 C438.54271149 60.55477501 438.52904784 66.00450846 438.51393986 71.45426369 C438.48180587 82.13926761 438.43063007 92.82408886 438.36745548 103.50895119 C437.37745548 103.50895119 436.38745548 103.50895119 435.36745548 103.50895119 C434.96526798 104.40613869 434.96526798 104.40613869 434.55495548 105.32145119 C432.28943619 109.49477619 429.85390411 111.04612534 425.36745548 112.50895119 C421.9856717 112.76310152 421.9856717 112.76310152 418.02785873 112.7690134 C417.29510885 112.77281908 416.56235897 112.77662475 415.80740455 112.78054574 C413.34474008 112.79087659 410.88230546 112.78695263 408.41962528 112.78310585 C406.6390955 112.78755744 404.85856769 112.79287122 403.07804281 112.79897457 C398.17928935 112.81317438 393.28059928 112.81481749 388.38182819 112.81437767 C383.10085507 112.81602411 377.8199082 112.82908732 372.53894901 112.84057045 C360.98948988 112.86343211 349.4400491 112.87134217 337.8905704 112.87639689 C330.68102764 112.87965226 323.47149023 112.88617372 316.26195049 112.89339828 C296.30592839 112.91296495 276.34991125 112.92936903 256.39387894 112.93227482 C255.11655898 112.93246239 253.83923902 112.93264996 252.52321239 112.93284321 C249.9337122 112.93320947 247.34421202 112.93357316 244.75471183 112.93393432 C242.8265319 112.93420854 242.8265319 112.93420854 240.85939884 112.9344883 C238.92886946 112.93475912 238.92886946 112.93475912 236.95933948 112.93503541 C216.09753469 112.93857827 195.23583305 112.96560735 174.37406405 113.00298619 C152.96238662 113.04104378 131.55076041 113.0604321 110.1390484 113.06073433 C98.11435013 113.06131944 86.08977494 113.06984603 74.0651083 113.09873199 C63.82754023 113.12321166 53.59014012 113.13055177 43.35255071 113.11548447 C38.12823952 113.10830188 32.90426024 113.10923126 27.679986 113.13189507 C22.89745909 113.15244397 18.11552012 113.14992292 13.33299986 113.12902022 C11.602866 113.12551752 9.87269007 113.13046829 8.14261141 113.14472466 C-7.46548667 113.26505129 -7.46548667 113.26505129 -13.2507779 108.89936644 C-17.64886122 104.47375502 -19.08158455 100.2430631 -19.17465878 94.06771278 C-19.16656185 93.2716613 -19.15846493 92.47560982 -19.15012264 91.65543556 C-19.16063656 90.36866669 -19.16063656 90.36866669 -19.17136288 89.05590248 C-19.18887845 86.23783334 -19.17734318 83.42077943 -19.16379452 80.60270119 C-19.16649128 78.63407131 -19.17037524 76.66544273 -19.1753912 74.6968174 C-19.18127753 70.57791354 -19.17275113 66.45935748 -19.15402889 62.34049416 C-19.13123997 57.07126872 -19.14436769 51.80285835 -19.16831875 46.5336628 C-19.18280008 42.47062012 -19.17816001 38.40776942 -19.16780758 34.34472084 C-19.16514675 32.40232686 -19.16838731 30.45991524 -19.17772579 28.51754189 C-19.18792988 25.79871652 -19.1723368 23.08119549 -19.15012264 20.36246681 C-19.15821957 19.56641533 -19.16631649 18.77036385 -19.17465878 17.95018959 C-19.09367778 12.57720897 -18.10255231 8.68948919 -14.63254452 4.50895119 C-9.5548876 1.03991007 -6.26722724 0.00826561 0 0 Z " fill="#E8E9E9" transform="translate(301.6325445175171,370.4910488128662)"/>
<path d="M0 0 C1.10496155 -0.00307895 1.10496155 -0.00307895 2.23224556 -0.0062201 C4.72613714 -0.01192095 7.21997402 -0.01042907 9.713871 -0.00901413 C11.50973457 -0.011596 13.30559756 -0.01460866 15.10145974 -0.01801753 C20.05644641 -0.02611174 25.01141862 -0.02787844 29.96641111 -0.028615 C35.30260452 -0.03046137 40.63879035 -0.0380066 45.9749794 -0.04475021 C57.65257634 -0.05835139 69.33016986 -0.06436107 81.0077734 -0.06876087 C88.29483933 -0.07152037 95.58190393 -0.07575719 102.86896896 -0.08026505 C123.03161282 -0.09246021 143.19425561 -0.10275893 163.35690308 -0.10614014 C164.64820197 -0.1063597 165.93950086 -0.10657927 167.26993002 -0.10680549 C168.56437839 -0.10702377 169.85882675 -0.10724204 171.19250083 -0.10746694 C173.81569274 -0.10791041 176.43888466 -0.10835697 179.06207657 -0.10880661 C180.36327974 -0.10902804 181.66448292 -0.10924947 183.00511649 -0.10947761 C204.09476121 -0.11342659 225.18437139 -0.13088255 246.27400276 -0.15416613 C267.90931385 -0.17786 289.5446076 -0.1903411 311.17993188 -0.19150805 C323.33424652 -0.19242594 335.48851618 -0.19820673 347.64281845 -0.21632767 C357.99174142 -0.23170218 368.34060552 -0.23686482 378.68953773 -0.22858956 C383.97223442 -0.22467361 389.25481245 -0.22565864 394.53749466 -0.23964691 C399.37110312 -0.25232929 404.20450306 -0.25123837 409.038111 -0.2390562 C410.78915778 -0.23708934 412.54021905 -0.24022297 414.29124543 -0.24890056 C416.66762409 -0.25993399 419.04325916 -0.25254719 421.4196167 -0.24050903 C422.44435795 -0.25190182 422.44435795 -0.25190182 423.48980105 -0.26352477 C428.02459039 -0.21377891 431.12100687 0.73150584 434.96149063 3.13142776 C438.97772742 8.4796378 439.55026667 12.697282 439.51080704 19.26033401 C439.5210289 20.14744064 439.53125076 21.03454727 439.54178238 21.94853592 C439.56945124 24.86394543 439.56767128 27.77840305 439.56305313 30.69392776 C439.57083273 32.72981998 439.57950325 34.76570896 439.58902359 36.80159378 C439.60392057 41.06171077 439.60338491 45.32149617 439.59283829 49.58162308 C439.58123983 55.03269653 439.61514267 60.48241283 439.66152763 65.93326187 C439.69103057 70.13529222 439.69274229 74.33699651 439.68650818 78.53911209 C439.68753281 80.54851855 439.69797485 82.55794368 439.71813202 84.5672493 C439.74289135 87.37989787 439.72926871 90.18991313 439.70611954 93.00252151 C439.72140701 93.82662521 439.73669449 94.65072891 439.75244522 95.49980545 C439.65614558 100.81025009 438.38983916 103.68753268 434.83374977 107.62814713 C429.96027556 111.54117352 425.71670631 112.50641972 419.54569817 112.50615788 C418.45244026 112.51224896 418.45244026 112.51224896 417.33709633 112.5184631 C414.89363446 112.52841285 412.45074654 112.51697928 410.00729752 112.50564957 C408.23827894 112.50839003 406.46926198 112.512442 404.70024908 112.51769322 C399.83791111 112.52829106 394.97575668 112.52014387 390.11342669 112.50894272 C384.86996819 112.50010933 379.62653394 112.50854179 374.38307571 112.51480484 C364.1100982 112.52430029 353.83719085 112.51768621 343.56421854 112.5055419 C331.60355995 112.49192871 319.64291813 112.49355919 307.68225376 112.49567523 C286.34139903 112.49886628 265.00057766 112.4871913 243.65973282 112.46760941 C222.94780842 112.44860956 202.23592312 112.44152048 181.52399063 112.44710159 C158.97775899 112.45315901 136.43154456 112.45298263 113.88531435 112.44161576 C111.48119569 112.44040846 109.07707703 112.43920247 106.67295837 112.43799782 C105.49005069 112.43739428 104.30714301 112.43679074 103.08838964 112.43616891 C94.74992126 112.43228871 86.41145927 112.43268381 78.07299042 112.43458366 C67.91050632 112.43670553 57.74805648 112.43148224 47.58558203 112.41697011 C42.39985168 112.40972481 37.21417124 112.40565026 32.02843666 112.41021347 C27.28126632 112.41428915 22.53419904 112.40912639 17.78704433 112.39658739 C16.06973306 112.39365901 14.35241208 112.39409309 12.6351033 112.39823047 C10.29960148 112.40334631 7.96444328 112.39613732 5.62896538 112.38590336 C4.3320554 112.38503658 3.03514543 112.3841698 1.69893515 112.38327676 C-2.46642089 112.1025928 -6.02549947 111.25310561 -10.03850937 110.13142776 C-10.03850937 109.47142776 -10.03850937 108.81142776 -10.03850937 108.13142776 C-10.63663437 108.09017776 -11.23475937 108.04892776 -11.85100937 108.00642776 C-14.03850937 107.13142776 -14.03850937 107.13142776 -15.65195847 104.6249733 C-17.35068544 100.34487076 -17.4541802 96.91323323 -17.41082382 92.35969925 C-17.41447449 91.49878677 -17.41812515 90.6378743 -17.42188644 89.75087357 C-17.4299628 86.91788609 -17.41640719 84.08547579 -17.40179062 81.25252151 C-17.40127171 79.27767309 -17.4017906 77.30282414 -17.40330124 75.32797623 C-17.40321165 71.1947544 -17.39280825 67.06172815 -17.37469101 62.92854691 C-17.35198956 57.63351087 -17.3514639 52.3387601 -17.35820866 47.04368877 C-17.36155147 42.96789392 -17.35491287 38.89216399 -17.34507942 34.81638145 C-17.34123366 32.86396563 -17.34007662 30.91154258 -17.34166527 28.95912361 C-17.34203653 26.23052987 -17.32939898 23.50230067 -17.31316757 20.77376175 C-17.31564499 19.96894867 -17.31812241 19.16413559 -17.3206749 18.33493423 C-17.26807817 12.78883894 -16.69367285 9.04521054 -13.03850937 4.81892776 C-11.03850937 3.13142776 -11.03850937 3.13142776 -9.03850937 3.13142776 C-9.03850937 2.47142776 -9.03850937 1.81142776 -9.03850937 1.13142776 C-6.12044422 -0.32760481 -3.19815168 -0.00817159 0 0 Z " fill="#E8E8E8" transform="translate(300.0385093688965,501.8685722351074)"/>
<path d="M0 0 C1.26762177 -0.00412399 2.53524353 -0.00824799 3.84127808 -0.01249695 C5.24353241 -0.00188018 6.64578458 0.00902424 8.04803467 0.02018738 C9.52643822 0.02103371 11.00484303 0.02055839 12.48324585 0.01885986 C16.49538814 0.01799871 20.50726167 0.03564379 24.51934147 0.05658174 C28.71270957 0.07532856 32.90608376 0.0770974 37.0994873 0.08065796 C45.03967342 0.0899843 52.9797357 0.11460602 60.91986728 0.14470643 C69.95967384 0.17823213 78.99948629 0.19473184 88.03933954 0.20979273 C106.63443054 0.24115508 125.22940624 0.29392701 143.82440186 0.36076355 C143.82440186 1.02076355 143.82440186 1.68076355 143.82440186 2.36076355 C145.80440186 3.35076355 145.80440186 3.35076355 147.82440186 4.36076355 C147.94940186 11.11076355 147.94940186 11.11076355 146.82440186 13.36076355 C146.16440186 13.36076355 145.50440186 13.36076355 144.82440186 13.36076355 C144.82440186 14.02076355 144.82440186 14.68076355 144.82440186 15.36076355 C125.20557323 15.45415997 105.58678964 15.52471971 85.96778488 15.56801224 C76.85855432 15.58864704 67.74946179 15.61678511 58.64031982 15.66252136 C50.70178965 15.70236111 42.76335943 15.72818968 34.82473207 15.73711753 C30.620331 15.74233716 26.41621593 15.75462401 22.21190643 15.78368378 C18.2556478 15.81080783 14.29979333 15.81921476 10.34345055 15.81319427 C8.89058169 15.81429588 7.43769949 15.82226802 5.98491096 15.83758545 C4.00269442 15.85746198 2.02026166 15.85032368 0.03796387 15.84178162 C-1.07187489 15.84546879 -2.18171364 15.84915596 -3.32518387 15.85295486 C-6.83542675 15.24682856 -8.00537579 14.12772168 -10.17559814 11.36076355 C-10.94804782 8.40159973 -10.57339957 6.49344977 -10.17559814 3.36076355 C-7.05090825 0.08742233 -4.39619942 -0.01102726 0 0 Z " fill="#4E565F" transform="translate(564.1755981445313,529.6392364501953)"/>
<path d="M0 0 C1.26184113 -0.00990463 2.52368225 -0.01980927 3.82376099 -0.03001404 C5.2196665 -0.02577604 6.61557107 -0.02121819 8.01147461 -0.01637268 C9.48339354 -0.02207568 10.95530805 -0.02903966 12.42721558 -0.03717041 C16.42305132 -0.05512365 20.41866773 -0.05392958 24.41453171 -0.04822803 C27.74968202 -0.04513969 31.08478998 -0.05122457 34.41993427 -0.05726677 C42.28674651 -0.07131711 50.15345016 -0.06974613 58.02026367 -0.05836487 C66.13878022 -0.04687909 74.2569666 -0.06096573 82.37543964 -0.08776134 C89.34455094 -0.109903 96.31355847 -0.11655932 103.28270245 -0.11068493 C107.44563897 -0.10731093 111.60836377 -0.10975977 115.77127075 -0.12693596 C119.68496526 -0.14237906 123.59816968 -0.13847939 127.51184464 -0.11963081 C128.94856801 -0.11593775 130.38532749 -0.11907432 131.82201767 -0.1295166 C133.78218709 -0.14267666 135.74248265 -0.12880182 137.70263672 -0.11352539 C139.34854042 -0.11321146 139.34854042 -0.11321146 141.0276947 -0.1128912 C144.54717235 0.51104086 145.74244613 1.5397318 147.85131836 4.38768005 C148.10131836 8.13768005 148.10131836 8.13768005 147.85131836 11.38768005 C146.86131836 11.71768005 145.87131836 12.04768005 144.85131836 12.38768005 C144.85131836 13.04768005 144.85131836 13.70768005 144.85131836 14.38768005 C124.93716115 14.45768357 105.02302882 14.51062568 85.10877419 14.54311657 C75.86275755 14.55860196 66.61681725 14.57972328 57.37084961 14.61399841 C49.31441174 14.64384974 41.25802913 14.66324289 33.20153749 14.66994554 C28.93354031 14.67386507 24.66570128 14.6831109 20.39775467 14.70487022 C16.38409547 14.72516814 12.37066022 14.73152754 8.35695457 14.7270031 C6.8806798 14.72783132 5.40439787 14.73383683 3.92816734 14.74529648 C1.91893243 14.76013418 -0.0904215 14.75486648 -2.09970093 14.7484436 C-3.78934747 14.75259167 -3.78934747 14.75259167 -5.51312828 14.75682354 C-6.38286089 14.63500619 -7.2525935 14.51318884 -8.14868164 14.38768005 C-10.10923873 11.44684441 -10.46082709 10.70640053 -10.52368164 7.38768005 C-10.55204102 6.70705505 -10.58040039 6.02643005 -10.60961914 5.32518005 C-10.14868164 3.38768005 -10.14868164 3.38768005 -8.50416565 1.79081631 C-5.48885279 -0.00537283 -3.50185991 0.00775485 0 0 Z " fill="#4A525C" transform="translate(564.148681640625,398.61231994628906)"/>
<path d="M0 0 C1.26888062 -0.00990463 2.53776123 -0.01980927 3.84509277 -0.03001404 C5.25407506 -0.02577576 6.66305641 -0.02121787 8.07203674 -0.01637268 C9.55366024 -0.02207398 11.03527934 -0.0290373 12.51689148 -0.03717041 C16.54377659 -0.05514414 20.5704443 -0.05392554 24.59735751 -0.04822803 C27.95731084 -0.04514211 31.31722204 -0.05122198 34.67716938 -0.05726677 C42.6029354 -0.07132434 50.52859366 -0.06974062 58.45436096 -0.05836487 C66.63477182 -0.04688318 74.81485486 -0.06095722 82.99522251 -0.08776134 C90.01526846 -0.10990347 97.0352114 -0.11655907 104.0552898 -0.11068493 C108.24953976 -0.10731046 112.44357957 -0.10976266 116.63780022 -0.12693596 C120.58184887 -0.1423794 124.52541121 -0.13847898 128.46944046 -0.11963081 C129.9174509 -0.1159376 131.36549716 -0.11907477 132.81347466 -0.1295166 C134.78902459 -0.14267587 136.76469968 -0.12880232 138.74023438 -0.11352539 C139.84617667 -0.11331611 140.95211897 -0.11310682 142.09157467 -0.1128912 C145.62097339 0.50874645 146.80602468 1.54529687 148.93360901 4.38768005 C149.66111176 10.31163099 149.66111176 10.31163099 147.78946972 13.07997608 C145.10271773 14.97315493 143.07110018 14.75652793 139.80233765 14.7484436 C138.51926224 14.7525676 137.23618683 14.75669159 135.91423035 14.76094055 C134.48945408 14.75032306 133.06467994 14.73941863 131.63990784 14.72825623 C130.1419476 14.72741015 128.64398612 14.72788471 127.14602661 14.72958374 C123.07597754 14.73044589 119.00619271 14.71278471 114.93620515 14.69186187 C110.68410719 14.67313163 106.43200345 14.67134752 102.17987061 14.66778564 C94.12632101 14.65845442 86.07289331 14.6338261 78.01939744 14.60373718 C68.8514421 14.57022665 59.683481 14.55371559 50.51547968 14.53865087 C31.65478697 14.50727746 12.79420778 14.45449606 -6.06639099 14.38768005 C-6.39639099 13.39768005 -6.72639099 12.40768005 -7.06639099 11.38768005 C-7.72639099 11.38768005 -8.38639099 11.38768005 -9.06639099 11.38768005 C-9.43436088 3.90562555 -9.43436088 3.90562555 -7.92722988 1.78422451 C-5.26401297 -0.21449813 -3.31007259 0.00727513 0 0 Z " fill="#4A515A" transform="translate(563.0663909912109,269.61231994628906)"/>
<path d="M0 0 C1.16015625 0.02900391 1.16015625 0.02900391 2.34375 0.05859375 C3.1171875 0.05988281 3.890625 0.06117188 4.6875 0.0625 C7.40935252 0.60982904 8.16552311 1.29866501 9.84375 3.49609375 C10.20451355 5.98283386 10.20451355 5.98283386 10.18432617 8.97729492 C10.18409958 10.09823044 10.18387299 11.21916595 10.18363953 12.37406921 C10.16815567 13.583517 10.15267181 14.79296478 10.13671875 16.0390625 C10.13247391 17.27779617 10.12822906 18.51652985 10.12385559 19.7928009 C10.10989733 23.08258376 10.08295213 26.37192578 10.04974365 29.66156006 C10.01902933 33.01976121 10.00534739 36.37802693 9.99023438 39.73632812 C9.95712359 46.32308949 9.90689257 52.90955555 9.84375 59.49609375 C5.45119485 61.79229322 2.81390179 61.96944154 -2.15625 61.49609375 C-4.30071623 59.38511283 -5.07661566 58.01162769 -5.53720093 55.02990723 C-5.53958771 54.10931519 -5.54197449 53.18872314 -5.54443359 52.24023438 C-5.55389008 51.19234741 -5.56334656 50.14446045 -5.5730896 49.06481934 C-5.56701691 47.93870239 -5.56094421 46.81258545 -5.5546875 45.65234375 C-5.55755768 44.49109985 -5.56042786 43.32985596 -5.56338501 42.13342285 C-5.56542594 39.67895012 -5.55989414 37.22446113 -5.54736328 34.77001953 C-5.53131097 31.01037266 -5.54721199 27.25180089 -5.56640625 23.4921875 C-5.56442382 21.10807054 -5.56058017 18.72395425 -5.5546875 16.33984375 C-5.56076019 15.21372681 -5.56683289 14.08760986 -5.5730896 12.92736816 C-5.55890488 11.35553772 -5.55890488 11.35553772 -5.54443359 9.75195312 C-5.54204681 8.83136108 -5.53966003 7.91076904 -5.53720093 6.96228027 C-4.98050983 3.35839328 -3.67702502 0.84598221 0 0 Z " fill="#515A63" transform="translate(408.15625,526.50390625)"/>
<path d="M0 0 C2.28807537 1.67896932 2.92763345 2.55500851 3.38768005 5.38389587 C3.39308304 6.32447342 3.39848602 7.26505096 3.40405273 8.23413086 C3.41673691 9.30211411 3.42942108 10.37009735 3.44248962 11.47044373 C3.43808617 13.20017174 3.43808617 13.20017174 3.43359375 14.96484375 C3.4388356 16.14969864 3.44407745 17.33455353 3.44947815 18.55531311 C3.45590606 21.06282772 3.45455148 23.57037244 3.44604492 26.07788086 C3.43754095 29.91900252 3.46627886 33.75863496 3.49804688 37.59960938 C3.49965904 40.03385372 3.49908106 42.4681007 3.49609375 44.90234375 C3.51294472 46.62903542 3.51294472 46.62903542 3.53013611 48.39060974 C3.52075516 49.46174515 3.51137421 50.53288055 3.50170898 51.63647461 C3.50154282 52.57784775 3.50137665 53.51922089 3.50120544 54.48912048 C2.84488045 57.7770995 1.62393735 58.9701748 -1 61 C-4.62193803 61.45274225 -6.95740895 61.5752713 -10.18739319 59.7930603 C-12 58 -12 58 -12.50120544 55.66079712 C-12.50137161 54.74100067 -12.50153778 53.82120422 -12.50170898 52.87353516 C-12.51108994 51.82880035 -12.52047089 50.78406555 -12.53013611 49.70767212 C-12.51328514 48.01546036 -12.51328514 48.01546036 -12.49609375 46.2890625 C-12.49754898 45.12877533 -12.49900421 43.96848816 -12.50050354 42.77304077 C-12.49884232 40.3167673 -12.48725635 37.86048366 -12.46655273 35.40429688 C-12.43766669 31.64668426 -12.44592663 27.89048772 -12.45898438 24.1328125 C-12.45274505 21.74738898 -12.44435261 19.36196992 -12.43359375 16.9765625 C-12.43799721 15.29042343 -12.43799721 15.29042343 -12.44248962 13.57022095 C-12.42980545 12.51918182 -12.41712128 11.4681427 -12.40405273 10.38525391 C-12.39864975 9.46386627 -12.39324677 8.54247864 -12.38768005 7.59317017 C-11.91565108 4.43579481 -10.90321792 2.54860721 -9 0 C-5.45026831 -1.1832439 -3.60040463 -0.90010116 0 0 Z " fill="#4F565F" transform="translate(323,267)"/>
<path d="M0 0 C2.1552124 1.19624329 2.1552124 1.19624329 4 3 C4.48101807 5.41081238 4.48101807 5.41081238 4.45410156 8.29760742 C4.45379944 9.37850143 4.45349731 10.45939545 4.45318604 11.57304382 C4.43254089 12.73874405 4.41189575 13.90444427 4.390625 15.10546875 C4.38496521 16.29981033 4.37930542 17.49415192 4.37347412 18.72468567 C4.35105175 22.54602847 4.30084195 26.36643975 4.25 30.1875 C4.2299427 32.7753771 4.2116906 35.36326887 4.1953125 37.95117188 C4.15116763 44.30110004 4.08419628 50.65048348 4 57 C2.515 57.495 2.515 57.495 1 58 C0.67 58.99 0.34 59.98 0 61 C-5.95703125 61.390625 -5.95703125 61.390625 -8 61 C-10.85687291 57.97457616 -11.38237622 55.84955112 -11.41992188 51.74414062 C-11.44378967 50.17231018 -11.44378967 50.17231018 -11.46813965 48.56872559 C-11.46834106 47.44260864 -11.46854248 46.3164917 -11.46875 45.15625 C-11.47636353 43.9950061 -11.48397705 42.83376221 -11.49182129 41.6373291 C-11.50262365 39.1828832 -11.50547486 36.72839133 -11.50097656 34.27392578 C-11.50000359 30.51387184 -11.54164134 26.75585336 -11.5859375 22.99609375 C-11.59114386 20.61198343 -11.5938327 18.227866 -11.59375 15.84375 C-11.61014526 14.71763306 -11.62654053 13.59151611 -11.64343262 12.43127441 C-11.57446128 4.66438528 -11.57446128 4.66438528 -8.65429688 1.28710938 C-5.43794281 -0.27255017 -3.53316236 -0.52621567 0 0 Z " fill="#4F565E" transform="translate(322,396)"/>
<path d="M0 0 C1.69058228 1.18774414 1.69058228 1.18774414 3 3 C3.38095093 5.46655273 3.38095093 5.46655273 3.38818359 8.43359375 C3.39764008 9.54484619 3.40709656 10.65609863 3.4168396 11.80102539 C3.41076691 13.00106201 3.40469421 14.20109863 3.3984375 15.4375 C3.40274277 17.28492798 3.40274277 17.28492798 3.40713501 19.16967773 C3.40970158 22.44347957 3.3976161 25.71685537 3.38085938 28.99060059 C3.37500553 30.99810385 3.38083795 33.00521369 3.39111328 35.01269531 C3.4096098 38.86281695 3.40740992 42.71235434 3.3984375 46.5625 C3.40754654 48.36255493 3.40754654 48.36255493 3.4168396 50.19897461 C3.40738312 51.31022705 3.39792664 52.42147949 3.38818359 53.56640625 C3.38579681 54.54552979 3.38341003 55.52465332 3.38095093 56.53344727 C3 59 3 59 1.69058228 60.81616211 C-1.15205857 62.80673423 -3.65225273 62.35239445 -7 62 C-9.19030762 60.80943298 -9.19030762 60.80943298 -11 59 C-11.50793457 56.57814026 -11.50793457 56.57814026 -11.51757812 53.67407227 C-11.53018677 52.58606827 -11.54279541 51.49806427 -11.55578613 50.37709045 C-11.54768921 49.20206467 -11.53959229 48.02703888 -11.53125 46.81640625 C-11.5350769 45.60935532 -11.53890381 44.40230438 -11.54284668 43.15867615 C-11.54557068 40.60406664 -11.53817558 38.04942948 -11.52148438 35.49487305 C-11.50010236 31.58123596 -11.52126225 27.66943878 -11.546875 23.75585938 C-11.54423145 21.27603761 -11.53910591 18.79621698 -11.53125 16.31640625 C-11.53934692 15.14340469 -11.54744385 13.97040314 -11.55578613 12.76185608 C-11.54317749 11.67069992 -11.53056885 10.57954376 -11.51757812 9.45532227 C-11.51439575 8.49618423 -11.51121338 7.5370462 -11.50793457 6.54884338 C-10.23639432 0.16818506 -5.84998161 -0.74454311 0 0 Z " fill="#48515B" transform="translate(384,266)"/>
<path d="M0 0 C2.65820312 1.2734375 2.65820312 1.2734375 5 4 C5.75375433 8.01369129 5.65191498 11.98980837 5.59375 16.0625 C5.59379028 17.24593994 5.59383057 18.42937988 5.59387207 19.64868164 C5.58851162 22.1502819 5.57090684 24.65188142 5.54199219 27.15332031 C5.50015776 30.98554876 5.50092143 34.81601937 5.5078125 38.6484375 C5.49731963 41.07813723 5.48438102 43.50782789 5.46875 45.9375 C5.46854858 47.08549072 5.46834717 48.23348145 5.46813965 49.41625977 C5.45222778 50.48416748 5.43631592 51.5520752 5.41992188 52.65234375 C5.41150269 53.59070068 5.4030835 54.52905762 5.39440918 55.49584961 C4.92960057 58.44697425 4.03131888 59.83885706 2 62 C0.0625 62.49609375 0.0625 62.49609375 -2 62.4375 C-3.0209375 62.43556641 -3.0209375 62.43556641 -4.0625 62.43359375 C-6.61565545 61.86222227 -7.4014201 61.06491784 -9 59 C-9.38095093 56.53344727 -9.38095093 56.53344727 -9.38818359 53.56640625 C-9.39764008 52.45515381 -9.40709656 51.34390137 -9.4168396 50.19897461 C-9.41076691 48.99893799 -9.40469421 47.79890137 -9.3984375 46.5625 C-9.40130768 45.33088135 -9.40417786 44.0992627 -9.40713501 42.83032227 C-9.40970158 39.55652043 -9.3976161 36.28314463 -9.38085938 33.00939941 C-9.37500553 31.00189615 -9.38083795 28.99478631 -9.39111328 26.98730469 C-9.4096098 23.13718305 -9.40740992 19.28764566 -9.3984375 15.4375 C-9.40451019 14.23746338 -9.41058289 13.03742676 -9.4168396 11.80102539 C-9.40738312 10.68977295 -9.39792664 9.57852051 -9.38818359 8.43359375 C-9.38579681 7.45447021 -9.38341003 6.47534668 -9.38095093 5.46655273 C-9 3 -9 3 -7.65542603 1.18774414 C-5.02304016 -0.7009545 -3.14933706 -0.44090719 0 0 Z " fill="#4C555F" transform="translate(413,266)"/>
<path d="M0 0 C3.71504054 0.61917342 4.67961384 1.5849192 7 4.5 C7.48101807 7.06903076 7.48101807 7.06903076 7.45410156 10.00292969 C7.45379944 11.10376892 7.45349731 12.20460815 7.45318604 13.33880615 C7.43254089 14.52121887 7.41189575 15.70363159 7.390625 16.921875 C7.38496521 18.13699768 7.37930542 19.35212036 7.37347412 20.60406494 C7.35107734 24.48644343 7.30087187 28.36790028 7.25 32.25 C7.2299394 34.88149709 7.21168787 37.51300864 7.1953125 40.14453125 C7.15120153 46.59666881 7.08425519 53.04826856 7 59.5 C6.34 59.5 5.68 59.5 5 59.5 C5 60.16 5 60.82 5 61.5 C1.95016004 63.02491998 -0.6423369 62.73562548 -4 62.5 C-5.69740295 61.31724548 -5.69740295 61.31724548 -7 59.5 C-7.38768005 57.07814026 -7.38768005 57.07814026 -7.40405273 54.17407227 C-7.41673691 53.08606827 -7.42942108 51.99806427 -7.44248962 50.87709045 C-7.43955399 49.70206467 -7.43661835 48.52703888 -7.43359375 47.31640625 C-7.44145653 45.50582985 -7.44145653 45.50582985 -7.44947815 43.65867615 C-7.45590634 41.10408295 -7.45455112 38.54946017 -7.44604492 35.99487305 C-7.43754092 32.08133311 -7.4662787 28.16925479 -7.49804688 24.25585938 C-7.49965904 21.77604211 -7.49908107 19.29622224 -7.49609375 16.81640625 C-7.50732773 15.64340469 -7.51856171 14.47040314 -7.53013611 13.26185608 C-7.51606468 11.62512184 -7.51606468 11.62512184 -7.50170898 9.95532227 C-7.50154282 8.99618423 -7.50137665 8.0370462 -7.50120544 7.04884338 C-6.63710811 2.65454002 -4.32984613 0.72164102 0 0 Z " fill="#49525C" transform="translate(441,265.5)"/>
<path d="M0 0 C0.680625 -0.01675781 1.36125 -0.03351562 2.0625 -0.05078125 C4.64857466 0.43410775 5.39457927 1.24028204 7 3.3125 C7.38095093 5.74108887 7.38095093 5.74108887 7.38818359 8.65429688 C7.40236832 10.29114441 7.40236832 10.29114441 7.4168396 11.96105957 C7.41076691 13.13922241 7.40469421 14.31738525 7.3984375 15.53125 C7.40274277 17.34538391 7.40274277 17.34538391 7.40713501 19.19616699 C7.40917786 21.75496895 7.40363268 24.31378645 7.39111328 26.87255859 C7.37506379 30.79690354 7.39095562 34.72021847 7.41015625 38.64453125 C7.40817386 41.12760645 7.40433027 43.610681 7.3984375 46.09375 C7.40451019 47.27191284 7.41058289 48.45007568 7.4168396 49.66394043 C7.40738312 50.75517212 7.39792664 51.84640381 7.38818359 52.97070312 C7.38579681 53.93206177 7.38341003 54.89342041 7.38095093 55.88391113 C6.9350437 58.72660099 6.29747163 59.62970794 4 61.3125 C1.73828125 61.60546875 1.73828125 61.60546875 -0.6875 61.5 C-1.89986328 61.45939453 -1.89986328 61.45939453 -3.13671875 61.41796875 C-3.75160156 61.38316406 -4.36648438 61.34835937 -5 61.3125 C-6.93250916 58.05233776 -7.25661859 55.60849175 -7.2746582 51.84130859 C-7.28419022 50.74692474 -7.29372223 49.65254089 -7.30354309 48.5249939 C-7.30263168 47.34885529 -7.30172028 46.17271667 -7.30078125 44.9609375 C-7.30506638 43.75055817 -7.3093515 42.54017883 -7.31376648 41.29312134 C-7.31950773 38.7361107 -7.32001156 36.17908372 -7.31567383 33.62207031 C-7.3125066 29.69568328 -7.33600195 25.77004425 -7.36132812 21.84375 C-7.36360028 19.36198012 -7.36430501 16.88020821 -7.36328125 14.3984375 C-7.372491 13.21825043 -7.38170074 12.03806335 -7.39118958 10.82211304 C-7.38496078 9.73403351 -7.37873199 8.64595398 -7.37231445 7.52490234 C-7.37294388 6.56433929 -7.3735733 5.60377625 -7.3742218 4.61410522 C-7.25072861 3.8545755 -7.12723541 3.09504578 -7 2.3125 C-4.03082597 0.33305064 -3.34297721 0.01899419 0 0 Z " fill="#48515B" transform="translate(380,526.6875)"/>
<path d="M0 0 C1.69355774 1.18086243 1.69355774 1.18086243 3 3 C3.36076355 5.48674011 3.36076355 5.48674011 3.34057617 8.48120117 C3.34034958 9.60213669 3.34012299 10.7230722 3.33988953 11.87797546 C3.32440567 13.08742325 3.30892181 14.29687103 3.29296875 15.54296875 C3.28872391 16.78170242 3.28447906 18.0204361 3.28010559 19.29670715 C3.26614733 22.58649001 3.23920213 25.87583203 3.20599365 29.16546631 C3.17527933 32.52366746 3.16159739 35.88193318 3.14648438 39.24023438 C3.11337359 45.82699574 3.06314257 52.4134618 3 59 C2.34 59 1.68 59 1 59 C1 59.66 1 60.32 1 61 C-0.43583001 61.10836453 -1.8740202 61.18576167 -3.3125 61.25 C-4.11300781 61.29640625 -4.91351563 61.3428125 -5.73828125 61.390625 C-8 61 -8 61 -9.61610413 59.31080627 C-11.28157762 56.52982639 -11.38553406 54.86302061 -11.40405273 51.63647461 C-11.41673691 50.5653392 -11.42942108 49.4942038 -11.44248962 48.39060974 C-11.43955399 47.23948196 -11.43661835 46.08835419 -11.43359375 44.90234375 C-11.4388356 43.71653214 -11.44407745 42.53072052 -11.44947815 41.30897522 C-11.45589975 38.8032408 -11.45455961 36.29747623 -11.44604492 33.79174805 C-11.43752442 29.94851367 -11.46631428 26.10675978 -11.49804688 22.26367188 C-11.49965862 19.83072961 -11.49908187 17.39778471 -11.49609375 14.96484375 C-11.50732773 13.81169174 -11.51856171 12.65853973 -11.53013611 11.47044373 C-11.52075516 10.40246048 -11.51137421 9.33447723 -11.50170898 8.23413086 C-11.50154282 7.29355331 -11.50137665 6.35297577 -11.50120544 5.38389587 C-11 3 -11 3 -9.19129944 1.19630432 C-5.99903495 -0.5464606 -3.5702348 -0.38948016 0 0 Z " fill="#4C5560" transform="translate(445,527)"/>
<path d="M0 0 C0.77988281 0.12117188 1.55976563 0.24234375 2.36328125 0.3671875 C3.15089844 0.47289062 3.93851562 0.57859375 4.75 0.6875 C5.38550781 0.87054688 6.02101563 1.05359375 6.67578125 1.2421875 C7.96443657 3.81949813 7.81689578 5.69218488 7.83691406 8.578125 C7.84652161 9.69268066 7.85612915 10.80723633 7.86602783 11.95556641 C7.87027771 13.16390137 7.87452759 14.37223633 7.87890625 15.6171875 C7.88460632 16.85259277 7.8903064 18.08799805 7.8961792 19.36083984 C7.90563785 21.97687928 7.9121666 24.59293067 7.91601562 27.20898438 C7.92041731 29.89792327 7.93437152 32.58654433 7.95703125 35.27539062 C7.98735225 39.13942294 7.9980473 43.00304979 8.00390625 46.8671875 C8.01625305 48.07552246 8.02859985 49.28385742 8.0413208 50.52880859 C8.0383197 51.64336426 8.0353186 52.75791992 8.03222656 53.90625 C8.03587219 54.89061035 8.03951782 55.8749707 8.04327393 56.88916016 C7.92200134 57.66565918 7.80072876 58.4421582 7.67578125 59.2421875 C4.70660722 61.22163686 4.01875846 61.53569331 0.67578125 61.5546875 C-0.00484375 61.57144531 -0.68546875 61.58820313 -1.38671875 61.60546875 C-3.96927027 61.12124034 -4.71717191 60.30733777 -6.32421875 58.2421875 C-6.7118988 55.85829163 -6.7118988 55.85829163 -6.72827148 53.00805664 C-6.74095566 51.94007339 -6.75363983 50.87209015 -6.76670837 49.77174377 C-6.76377274 48.61859177 -6.7608371 47.46543976 -6.7578125 46.27734375 C-6.76305435 45.09248886 -6.7682962 43.90763397 -6.7736969 42.68687439 C-6.78012481 40.17935978 -6.77877023 37.67181506 -6.77026367 35.16430664 C-6.7617597 31.32318498 -6.79049761 27.48355254 -6.82226562 23.64257812 C-6.82387779 21.20833378 -6.82329981 18.7740868 -6.8203125 16.33984375 C-6.83154648 15.18871597 -6.84278046 14.0375882 -6.85435486 12.85157776 C-6.84497391 11.78044235 -6.83559296 10.70930695 -6.82592773 9.60571289 C-6.82576157 8.66433975 -6.8255954 7.72296661 -6.82542419 6.75306702 C-6.05549519 2.8959681 -3.99472947 0.41625753 0 0 Z " fill="#4B535D" transform="translate(440.32421875,395.7578125)"/>
<path d="M0 0 C6.35640182 -0.48895399 6.35640182 -0.48895399 9.20301819 1.67367554 C11.39664924 4.51349146 11.50109489 5.91544893 11.50170898 9.47119141 C11.51108994 10.56557526 11.52047089 11.65995911 11.53013611 12.7875061 C11.51890213 13.96364471 11.50766815 15.13978333 11.49609375 16.3515625 C11.49754898 17.56194183 11.49900421 18.77232117 11.50050354 20.01937866 C11.49884402 22.57642018 11.48727701 25.13347162 11.46655273 27.69042969 C11.43755933 31.61696474 11.44595146 35.54215366 11.45898438 39.46875 C11.45274845 41.95052743 11.44435866 44.43230058 11.43359375 46.9140625 C11.43652939 48.09424957 11.43946503 49.27443665 11.44248962 50.49038696 C11.42346336 52.12250626 11.42346336 52.12250626 11.40405273 53.78759766 C11.39864975 54.74816071 11.39324677 55.70872375 11.38768005 56.69839478 C11.25974564 57.4579245 11.13181122 58.21745422 11 59 C8.00261059 60.99825961 7.36652492 61.27550398 4 61.25 C3.319375 61.25515625 2.63875 61.2603125 1.9375 61.265625 C0 61 0 61 -3 59 C-3.36076355 56.6335144 -3.36076355 56.6335144 -3.34057617 53.63232422 C-3.34034958 52.51131317 -3.34012299 51.39030212 -3.33988953 50.23532104 C-3.32440567 49.02071198 -3.30892181 47.80610291 -3.29296875 46.5546875 C-3.28872391 45.31453888 -3.28447906 44.07439026 -3.28010559 42.79666138 C-3.26613216 39.49864537 -3.23917361 36.2010665 -3.20599365 32.90319824 C-3.17531238 29.53838458 -3.16160446 26.17350696 -3.14648438 22.80859375 C-3.1133473 16.20555729 -3.06309697 9.60281442 -3 3 C-2.34 3 -1.68 3 -1 3 C-0.67 2.01 -0.34 1.02 0 0 Z " fill="#48525C" transform="translate(407,396)"/>
<path d="M0 0 C1.17369141 0.04253906 1.17369141 0.04253906 2.37109375 0.0859375 C3.15613281 0.09882813 3.94117188 0.11171875 4.75 0.125 C6.80859375 0.4609375 6.80859375 0.4609375 8.80859375 2.4609375 C9.06929016 4.76254272 9.06929016 4.76254272 9.08325195 7.67333984 C9.09278397 8.76141937 9.10231598 9.8494989 9.11213684 10.97055054 C9.11122543 12.15073761 9.11031403 13.33092468 9.109375 14.546875 C9.11366013 15.75534088 9.11794525 16.96380676 9.12236023 18.20889282 C9.12811253 20.76946383 9.12859721 23.33005119 9.12426758 25.890625 C9.12111238 29.81278363 9.14454033 33.73418499 9.16992188 37.65625 C9.1721952 40.14062405 9.17289821 42.62500013 9.171875 45.109375 C9.18108475 46.28551361 9.19029449 47.46165222 9.19978333 48.6734314 C9.19355453 49.76781525 9.18732574 50.8621991 9.1809082 51.98974609 C9.18153763 52.95190033 9.18216705 53.91405457 9.18281555 54.90536499 C8.74402495 57.90187989 7.87260616 59.27623609 5.80859375 61.4609375 C3.87109375 61.9921875 3.87109375 61.9921875 1.80859375 61.9609375 C1.12796875 61.97125 0.44734375 61.9815625 -0.25390625 61.9921875 C-3.03943731 61.22841286 -3.70340312 59.89499852 -5.19140625 57.4609375 C-5.57235718 54.99475098 -5.57235718 54.99475098 -5.57958984 52.20507812 C-5.58904633 51.15719116 -5.59850281 50.1093042 -5.60824585 49.02966309 C-5.60217316 47.90354614 -5.59610046 46.7774292 -5.58984375 45.6171875 C-5.59271393 44.4559436 -5.59558411 43.29469971 -5.59854126 42.0982666 C-5.60058219 39.64379387 -5.59505039 37.18930488 -5.58251953 34.73486328 C-5.56646722 30.97521641 -5.58236824 27.21664464 -5.6015625 23.45703125 C-5.59958007 21.07291429 -5.59573642 18.688798 -5.58984375 16.3046875 C-5.59591644 15.17857056 -5.60198914 14.05245361 -5.60824585 12.89221191 C-5.59406113 11.32038147 -5.59406113 11.32038147 -5.57958984 9.71679688 C-5.57720306 8.79620483 -5.57481628 7.87561279 -5.57235718 6.92712402 C-5.01285539 3.30504131 -3.71674978 0.78177625 0 0 Z " fill="#48505A" transform="translate(347.19140625,266.5390625)"/>
<path d="M0 0 C7.5032769 -0.36901362 7.5032769 -0.36901362 9.60342407 1.19117737 C11.48513638 3.62834081 11.38041452 5.17250998 11.38818359 8.23413086 C11.39764008 9.30211411 11.40709656 10.37009735 11.4168396 11.47044373 C11.41076691 12.62359573 11.40469421 13.77674774 11.3984375 14.96484375 C11.40274277 16.74212608 11.40274277 16.74212608 11.40713501 18.55531311 C11.40917792 21.06284055 11.40363231 23.57038384 11.39111328 26.07788086 C11.37507799 29.9188196 11.39094803 33.7587037 11.41015625 37.59960938 C11.40817358 40.03385649 11.40432942 42.46810295 11.3984375 44.90234375 C11.40451019 46.05347153 11.41058289 47.2045993 11.4168396 48.39060974 C11.40738312 49.46174515 11.39792664 50.53288055 11.38818359 51.63647461 C11.38579681 52.57784775 11.38341003 53.51922089 11.38095093 54.48912048 C10.93138317 57.45225926 10.03941625 58.83420425 8 61 C6.0625 61.49609375 6.0625 61.49609375 4 61.4375 C2.9790625 61.43556641 2.9790625 61.43556641 1.9375 61.43359375 C-0.61437048 60.86250983 -1.4030673 60.06402373 -3 58 C-3.36076355 55.55122375 -3.36076355 55.55122375 -3.34057617 52.6105957 C-3.34034958 51.50968094 -3.34012299 50.40876617 -3.33988953 49.27449036 C-3.32440567 48.08691635 -3.30892181 46.89934235 -3.29296875 45.67578125 C-3.28872391 44.45924362 -3.28447906 43.24270599 -3.28010559 41.98930359 C-3.26328851 38.09681229 -3.22562959 34.20483529 -3.1875 30.3125 C-3.17245713 27.67643976 -3.15876804 25.04037142 -3.14648438 22.40429688 C-3.11337499 15.9360219 -3.06314505 9.46804769 -3 3 C-2.01 2.67 -1.02 2.34 0 2 C0 1.34 0 0.68 0 0 Z " fill="#474F5A" transform="translate(376,396)"/>
<path d="M0 0 C0.99 0.66 1.98 1.32 3 2 C3.38095093 4.30160522 3.38095093 4.30160522 3.38818359 7.21240234 C3.39764008 8.30048187 3.40709656 9.3885614 3.4168396 10.50961304 C3.41076691 11.68980011 3.40469421 12.86998718 3.3984375 14.0859375 C3.40274277 15.89863632 3.40274277 15.89863632 3.40713501 17.74795532 C3.40917982 20.30853747 3.40362099 22.86913509 3.39111328 25.4296875 C3.37509427 29.35191836 3.39093462 33.27311428 3.41015625 37.1953125 C3.40817335 39.67968978 3.4043287 42.16406641 3.3984375 44.6484375 C3.40754654 46.41264542 3.40754654 46.41264542 3.4168396 48.2124939 C3.40738312 49.30687775 3.39792664 50.4012616 3.38818359 51.52880859 C3.38579681 52.49096283 3.38341003 53.45311707 3.38095093 54.44442749 C2.9346766 57.43821569 2.07365687 58.82412256 0 61 C-2.76142303 61.52799676 -5.16365545 61.18598981 -8 61 C-8.495 59.515 -8.495 59.515 -9 58 C-9.66 57.67 -10.32 57.34 -11 57 C-11.10134735 49.52534555 -11.1714435 42.050868 -11.21972656 34.57568359 C-11.23985272 32.03232197 -11.26715637 29.48900667 -11.30175781 26.94580078 C-11.3502297 23.29187596 -11.37295916 19.63856244 -11.390625 15.984375 C-11.41127014 14.84570984 -11.43191528 13.70704468 -11.45318604 12.53387451 C-11.45348816 11.47307678 -11.45379028 10.41227905 -11.45410156 9.31933594 C-11.46298401 8.38667908 -11.47186646 7.45402222 -11.48101807 6.49310303 C-10.24478856 0.08576046 -5.79455935 -0.63213375 0 0 Z " fill="#464D57" transform="translate(353,396)"/>
<path d="M0 0 C1.0209375 0.02900391 1.0209375 0.02900391 2.0625 0.05859375 C3.0834375 0.06052734 3.0834375 0.06052734 4.125 0.0625 C6.67687048 0.63358392 7.4655673 1.43207002 9.0625 3.49609375 C9.42326355 5.94487 9.42326355 5.94487 9.40307617 8.88549805 C9.40284958 9.98641281 9.40262299 11.08732758 9.40238953 12.22160339 C9.38690567 13.4091774 9.37142181 14.5967514 9.35546875 15.8203125 C9.35122391 17.03685013 9.34697906 18.25338776 9.34260559 19.50679016 C9.32578851 23.39928146 9.28812959 27.29125846 9.25 31.18359375 C9.23495713 33.81965399 9.22126804 36.45572233 9.20898438 39.09179688 C9.17587499 45.56007185 9.12564505 52.02804606 9.0625 58.49609375 C8.0725 58.49609375 7.0825 58.49609375 6.0625 58.49609375 C5.7325 59.48609375 5.4025 60.47609375 5.0625 61.49609375 C1.75 61.74609375 1.75 61.74609375 -1.9375 61.49609375 C-4.07107913 59.38636564 -4.85902075 58.00414989 -5.31845093 55.02990723 C-5.32083771 54.10931519 -5.32322449 53.18872314 -5.32568359 52.24023438 C-5.33514008 51.19234741 -5.34459656 50.14446045 -5.3543396 49.06481934 C-5.34826691 47.93870239 -5.34219421 46.81258545 -5.3359375 45.65234375 C-5.33880768 44.49109985 -5.34167786 43.32985596 -5.34463501 42.13342285 C-5.34667594 39.67895012 -5.34114414 37.22446113 -5.32861328 34.77001953 C-5.31256097 31.01037266 -5.32846199 27.25180089 -5.34765625 23.4921875 C-5.34567382 21.10807054 -5.34183017 18.72395425 -5.3359375 16.33984375 C-5.34201019 15.21372681 -5.34808289 14.08760986 -5.3543396 12.92736816 C-5.34015488 11.35553772 -5.34015488 11.35553772 -5.32568359 9.75195312 C-5.32329681 8.83136108 -5.32091003 7.91076904 -5.31845093 6.96228027 C-4.7874768 3.52487888 -3.51693162 0.90050467 0 0 Z " fill="#4A515A" transform="translate(316.9375,526.50390625)"/>
<path d="M0 0 C0 0.66 0 1.32 0 2 C0.99 2.33 1.98 2.66 3 3 C3 20.82 3 38.64 3 57 C2.34 57 1.68 57 1 57 C1 57.99 1 58.98 1 60 C-0.43583001 60.10836453 -1.8740202 60.18576167 -3.3125 60.25 C-4.11300781 60.29640625 -4.91351563 60.3428125 -5.73828125 60.390625 C-8 60 -8 60 -9.61709595 58.30506897 C-11.27117761 55.54799243 -11.37991752 53.92698154 -11.38818359 50.72827148 C-11.39764008 49.67715683 -11.40709656 48.62604218 -11.4168396 47.54307556 C-11.41076691 46.41382156 -11.40469421 45.28456757 -11.3984375 44.12109375 C-11.40130768 42.95747818 -11.40417786 41.79386261 -11.40713501 40.59498596 C-11.40917578 38.13631707 -11.40364506 35.67763194 -11.39111328 33.21899414 C-11.37504629 29.44836286 -11.39096996 25.67880122 -11.41015625 21.90820312 C-11.40817411 19.52083096 -11.40433103 17.13345946 -11.3984375 14.74609375 C-11.40451019 13.61481552 -11.41058289 12.48353729 -11.4168396 11.31797791 C-11.40738312 10.27001541 -11.39792664 9.22205292 -11.38818359 8.14233398 C-11.38579681 7.21952133 -11.38341003 6.29670868 -11.38095093 5.34593201 C-10.3182859 -1.19806021 -5.33671234 -0.26246126 0 0 Z " fill="#464E58" transform="translate(353,528)"/>
<path d="M0 0 C103.29 0 206.58 0 313 0 C313.33 5.61 313.66 11.22 314 17 C313.34 16.67 312.68 16.34 312 16 C312 11.05 312 6.1 312 1 C310.68 1.33 309.36 1.66 308 2 C306.24993284 2.08862752 304.49682038 2.12376717 302.74451065 2.12304783 C301.67411081 2.12503888 300.60371096 2.12702993 299.50087476 2.12908131 C298.32578689 2.12616847 297.15069903 2.12325563 295.94000244 2.12025452 C294.69110127 2.12110894 293.4422001 2.12196337 292.15545344 2.12284368 C288.68699926 2.12508225 285.2185759 2.12107605 281.75012565 2.11606562 C278.01055638 2.11175219 274.2709889 2.11320818 270.53141785 2.1139679 C264.05171547 2.11449256 257.57202315 2.11135173 251.0923233 2.10573006 C241.72373431 2.09760733 232.35515018 2.09499904 222.98655805 2.09374207 C207.78709714 2.09155277 192.58764159 2.08489597 177.38818359 2.07543945 C162.62223335 2.06626219 147.85628455 2.05918289 133.09033203 2.05493164 C132.18034927 2.05466892 131.27036652 2.05440619 130.33280852 2.05413551 C125.76774934 2.05283048 121.20269014 2.05156677 116.63763094 2.05032361 C78.75841684 2.03995479 40.87920884 2.02233977 3 2 C3.00902344 3.27230469 3.01804687 4.54460938 3.02734375 5.85546875 C3.05653823 9.97188997 2.29876262 13.10371214 1 17 C0.34 17 -0.32 17 -1 17 C-1.66 18.32 -2.32 19.64 -3 21 C-19.5 21 -36 21 -53 21 C-53 20.67 -53 20.34 -53 20 C-52.3927861 19.99635437 -51.7855722 19.99270874 -51.15995789 19.98895264 C-44.84949234 19.94719641 -38.53975881 19.87789979 -32.22973633 19.79248047 C-29.87369095 19.76422546 -27.51754998 19.7430336 -25.16137695 19.72900391 C-21.77765804 19.70763755 -18.39509403 19.6610183 -15.01171875 19.609375 C-13.42722176 19.60753204 -13.42722176 19.60753204 -11.81071472 19.60565186 C-10.82992447 19.58593323 -9.84913422 19.5662146 -8.83862305 19.54589844 C-7.97480515 19.53701599 -7.11098724 19.52813354 -6.22099304 19.51898193 C-3.41660863 19.11449174 -3.41660863 19.11449174 -1 15 C-0.67 10.05 -0.34 5.1 0 0 Z " fill="#BCBDBD" transform="translate(355,789)"/>
<path d="M0 0 C0.73452734 -0.00115384 1.46905468 -0.00230769 2.22584042 -0.0034965 C4.70646702 -0.00615988 7.18702974 -0.00164326 9.66765308 0.00279331 C11.45628096 0.00235755 13.24490878 0.00148256 15.03353626 0.00020415 C19.96364777 -0.0020399 24.8937377 0.00197926 29.82384646 0.00698221 C35.13468179 0.01128779 40.44551584 0.00984021 45.75635242 0.00907993 C54.96275783 0.00855477 64.16915618 0.0117008 73.37555981 0.01731777 C86.68658813 0.02543376 99.99761303 0.02804809 113.30864356 0.02930576 C134.90323498 0.03149613 156.49782262 0.03815579 178.09241199 0.04760838 C199.07353159 0.0567829 220.05465017 0.06386354 241.03577137 0.06811619 C242.32835228 0.06837891 243.6209332 0.06864164 244.95268323 0.06891232 C251.43697418 0.07021733 257.92126513 0.07148104 264.40555608 0.07272422 C318.22655168 0.08309635 372.04754318 0.10071424 425.86853504 0.12304783 C425.86853504 0.45304783 425.86853504 0.78304783 425.86853504 1.12304783 C283.30853504 1.12304783 140.74853504 1.12304783 -6.13146496 1.12304783 C-6.13146496 1.78304783 -6.13146496 2.44304783 -6.13146496 3.12304783 C-8.06505871 4.59570408 -8.06505871 4.59570408 -10.56896496 6.18554783 C-13.50327926 7.95983674 -13.50327926 7.95983674 -16.13146496 10.12304783 C-16.22673301 13.07551137 -16.25698948 16.00453204 -16.24499035 18.95727634 C-16.24513638 19.88401157 -16.2452824 20.8107468 -16.24543285 21.76556492 C-16.24473334 24.8443847 -16.23693917 27.9231448 -16.22912121 31.00195408 C-16.22725716 33.130448 -16.2258332 35.25894236 -16.22483349 37.38743687 C-16.22100723 43.00167103 -16.21117604 48.61587951 -16.20012951 54.23010349 C-16.18991769 59.95418036 -16.18533636 65.67826136 -16.18029308 71.4023447 C-16.16955386 82.64259039 -16.15247616 93.88281698 -16.13146496 105.12304783 C-18.13146496 104.12304783 -18.13146496 104.12304783 -18.74810791 102.29493713 C-19.36448735 98.80287167 -19.27875311 95.29677196 -19.27672863 91.76196384 C-19.28008724 90.92085056 -19.28344585 90.07973728 -19.28690624 89.21313572 C-19.29640043 86.43439346 -19.2983585 83.65571155 -19.29943371 80.87695408 C-19.30264706 78.94408741 -19.30601119 77.01122099 -19.30951977 75.07835484 C-19.31550699 71.02741017 -19.31736005 66.97648684 -19.31676769 62.92553806 C-19.31666603 57.73584579 -19.33032478 52.54629019 -19.3475399 47.35663033 C-19.3586596 43.36491868 -19.36068692 39.3732401 -19.36015797 35.38151455 C-19.36133787 33.46816569 -19.36576025 31.55481596 -19.37349033 29.64148235 C-19.38329072 26.9653996 -19.3804121 24.28961391 -19.37438488 21.61352634 C-19.38000439 20.82427265 -19.38562389 20.03501896 -19.39141369 19.22184849 C-19.35726056 13.25247228 -18.60252937 9.77799529 -14.63146496 5.31054783 C-12.13146496 3.12304783 -12.13146496 3.12304783 -10.13146496 3.12304783 C-10.13146496 2.46304783 -10.13146496 1.80304783 -10.13146496 1.12304783 C-6.57387898 -0.06281416 -3.75749936 -0.00108567 0 0 Z " fill="#9BA0A4" transform="translate(301.1314649581909,240.87695217132568)"/>
<path d="M0 0 C0.33 1.32 0.66 2.64 1 4 C1.66 4 2.32 4 3 4 C3 180.22 3 356.44 3 538 C2.67 538 2.34 538 2 538 C2 363.1 2 188.2 2 8 C1.34 8 0.68 8 0 8 C0 5.36 0 2.72 0 0 Z " fill="#686E73" transform="translate(774,231)"/>
<path d="M0 0 C11.22 0 22.44 0 34 0 C34.495 7.425 34.495 7.425 35 15 C35.495 16.485 35.495 16.485 36 18 C35.34 18 34.68 18 34 18 C33.49411853 16.08487728 32.99551609 14.16783078 32.5 12.25 C32.2215625 11.18265625 31.943125 10.1153125 31.65625 9.015625 C31 6 31 6 31 2 C29.69796631 2.01571045 29.69796631 2.01571045 28.36962891 2.03173828 C25.15300472 2.06579716 21.93647233 2.09088767 18.71972656 2.10986328 C17.32679219 2.11992877 15.93387898 2.13358234 14.54101562 2.15087891 C12.5404564 2.1751022 10.53974385 2.18540814 8.5390625 2.1953125 C7.33459473 2.20578613 6.13012695 2.21625977 4.88916016 2.22705078 C2 2 2 2 0 0 Z " fill="#D3D4D4" transform="translate(264,789)"/>
<path d="M0 0 C0.81700882 0.00141495 1.63401764 0.0028299 2.4757843 0.00428772 C5.08415393 0.00988331 7.69243759 0.02243496 10.30078125 0.03515625 C12.06966022 0.04017182 13.83854053 0.04473463 15.60742188 0.04882812 C19.94274144 0.05985129 24.27799677 0.07711287 28.61328125 0.09765625 C28.61328125 0.42765625 28.61328125 0.75765625 28.61328125 1.09765625 C16.73328125 1.09765625 4.85328125 1.09765625 -7.38671875 1.09765625 C-7.38671875 1.75765625 -7.38671875 2.41765625 -7.38671875 3.09765625 C-9.55674505 4.68991873 -11.83304103 6.05497527 -14.125 7.46484375 C-16.4303476 9.12915342 -17.81491924 10.74758709 -19.38671875 13.09765625 C-18.97354653 8.27731363 -17.0065196 6.18773014 -13.38671875 3.09765625 C-12.72671875 3.09765625 -12.06671875 3.09765625 -11.38671875 3.09765625 C-11.38671875 2.43765625 -11.38671875 1.77765625 -11.38671875 1.09765625 C-7.56516495 -0.17619502 -3.97987405 -0.02587563 0 0 Z " fill="#959B9F" transform="translate(302.38671875,240.90234375)"/>
<path d="M0 0 C0.33 0 0.66 0 1 0 C1 17.82 1 35.64 1 54 C1.66 54 2.32 54 3 54 C3.33 55.32 3.66 56.64 4 58 C2.68 57.34 1.36 56.68 0 56 C0 37.52 0 19.04 0 0 Z " fill="#5C646E" transform="translate(404,399)"/>
<path d="M0 0 C0.33 1.32 0.66 2.64 1 4 C1.66 4 2.32 4 3 4 C3 17.53 3 31.06 3 45 C2.67 45 2.34 45 2 45 C2 32.79 2 20.58 2 8 C1.34 8 0.68 8 0 8 C0 5.36 0 2.72 0 0 Z " fill="#686F74" transform="translate(774,231)"/>
<path d="M0 0 C0.99 0.66 1.98 1.32 3 2 C2.67 2.66 2.34 3.32 2 4 C1.34 3.67 0.68 3.34 0 3 C-3.53018797 2.84651357 -6.61527952 2.95854754 -10 4 C-9.67 3.01 -9.34 2.02 -9 1 C-5.98131566 -0.50934217 -3.32702771 -0.17510672 0 0 Z " fill="#757A81" transform="translate(353,396)"/>
<path d="M0 0 C0.58394531 0.21914062 1.16789062 0.43828125 1.76953125 0.6640625 C1.15464844 1.05078125 0.53976562 1.4375 -0.09375 1.8359375 C-0.90199219 2.35671875 -1.71023438 2.8775 -2.54296875 3.4140625 C-3.74373047 4.17976562 -3.74373047 4.17976562 -4.96875 4.9609375 C-7.23415736 6.66684011 -8.65731042 8.32214395 -10.23046875 10.6640625 C-10.14710897 7.8298301 -9.6165562 6.10704705 -7.74609375 3.9609375 C-2.93209205 -0.44161106 -2.93209205 -0.44161106 0 0 Z " fill="#B1B6B9" transform="translate(293.23046875,243.3359375)"/>
<path d="M0 0 C0.33 0 0.66 0 1 0 C1 4.29 1 8.58 1 13 C1.66 13 2.32 13 3 13 C3.33 14.32 3.66 15.64 4 17 C2.68 16.34 1.36 15.68 0 15 C0 10.05 0 5.1 0 0 Z " fill="#696F76" transform="translate(404,440)"/>
<path d="M0 0 C0.66 0 1.32 0 2 0 C0.70700306 2.88437779 -0.65941363 4.87219421 -3 7 C-3.99 6.67 -4.98 6.34 -6 6 C-4 4 -2 2 0 0 Z " fill="#BEC2C1" transform="translate(290,373)"/>
<path d="M0 0 C0.33 1.32 0.66 2.64 1 4 C1.66 4 2.32 4 3 4 C3 6.64 3 9.28 3 12 C2.67 10.68 2.34 9.36 2 8 C1.34 8 0.68 8 0 8 C0 5.36 0 2.72 0 0 Z " fill="#7C8187" transform="translate(774,231)"/>
</svg>
