<?xml version="1.0" encoding="UTF-8"?>
<svg height="128px" viewBox="0 0 128 128" width="128px" xmlns="http://www.w3.org/2000/svg" xmlns:xlink="http://www.w3.org/1999/xlink">
    <linearGradient id="a" gradientUnits="userSpaceOnUse" spreadMethod="reflect" x1="11.85086" x2="115.989807" y1="64.022781" y2="64.022781">
        <stop offset="0" stop-color="#262628"/>
        <stop offset="0.0500001" stop-color="#3e3d3a"/>
        <stop offset="0.099807" stop-color="#282828"/>
        <stop offset="0.900001" stop-color="#303030"/>
        <stop offset="0.950001" stop-color="#434342"/>
        <stop offset="1" stop-color="#333333"/>
    </linearGradient>
    <path d="m 21.078125 11.996094 h 85.683594 c 5.097656 0 9.226562 4.132812 9.226562 9.230468 v 85.59375 c 0 5.097657 -4.128906 9.230469 -9.226562 9.230469 h -85.683594 c -5.09375 0 -9.226563 -4.132812 -9.226563 -9.230469 v -85.59375 c 0 -5.097656 4.132813 -9.230468 9.226563 -9.230468 z m 0 0" fill="url(#a)"/>
    <path d="m 23.300781 11.890625 h 81.015625 c 6.40625 0 11.597656 5.191406 11.597656 11.597656 v 75.328125 c 0 6.402344 -5.191406 11.59375 -11.597656 11.59375 h -81.015625 c -6.40625 0 -11.597656 -5.191406 -11.597656 -11.59375 v -75.328125 c 0 -6.40625 5.191406 -11.597656 11.597656 -11.597656 z m 0 0" fill="#3f3f44"/>
    <path d="m 23.222656 17.089844 h 81.40625 c 1.777344 0 3.21875 1.441406 3.21875 3.222656 v 18.917969 c 0 1.78125 -1.441406 3.222656 -3.21875 3.222656 h -81.40625 c -1.777344 0 -3.21875 -1.441406 -3.21875 -3.222656 v -18.917969 c 0 -1.78125 1.441406 -3.222656 3.21875 -3.222656 z m 0 0" fill="#7bc13b"/>
    <path d="m 23.078125 47.113281 h 81.40625 c 1.777344 0 3.21875 1.441407 3.21875 3.21875 v 18.921875 c 0 1.777344 -1.441406 3.21875 -3.21875 3.21875 h -81.40625 c -1.777344 0 -3.21875 -1.441406 -3.21875 -3.21875 v -18.921875 c 0 -1.777343 1.441406 -3.21875 3.21875 -3.21875 z m 0 0" fill="#7f5a3b"/>
    <path d="m 23.078125 77.933594 h 81.40625 c 1.777344 0 3.21875 1.441406 3.21875 3.222656 v 18.917969 c 0 1.78125 -1.441406 3.222656 -3.21875 3.222656 h -81.40625 c -1.777344 0 -3.21875 -1.441406 -3.21875 -3.222656 v -18.917969 c 0 -1.78125 1.441406 -3.222656 3.21875 -3.222656 z m 0 0" fill="#7f5a3b"/>
    <g fill="#4d4d4d">
        <path d="m 27.851562 21.648438 h 1.9375 c 1.191407 0 2.15625 0.964843 2.15625 2.15625 v 11.648437 c 0 1.195313 -0.964843 2.160156 -2.15625 2.160156 h -1.9375 c -1.191406 0 -2.160156 -0.964843 -2.160156 -2.160156 v -11.648437 c 0 -1.191407 0.96875 -2.15625 2.160156 -2.15625 z m 0 0"/>
        <path d="m 37.851562 21.648438 h 1.9375 c 1.191407 0 2.15625 0.964843 2.15625 2.15625 v 11.648437 c 0 1.195313 -0.964843 2.160156 -2.15625 2.160156 h -1.9375 c -1.191406 0 -2.160156 -0.964843 -2.160156 -2.160156 v -11.648437 c 0 -1.191407 0.96875 -2.15625 2.160156 -2.15625 z m 0 0"/>
        <path d="m 47.851562 21.648438 h 1.9375 c 1.191407 0 2.15625 0.964843 2.15625 2.15625 v 11.648437 c 0 1.195313 -0.964843 2.160156 -2.15625 2.160156 h -1.9375 c -1.191406 0 -2.160156 -0.964843 -2.160156 -2.160156 v -11.648437 c 0 -1.191407 0.96875 -2.15625 2.160156 -2.15625 z m 0 0"/>
        <path d="m 72.046875 25.675781 l 0.003906 -1.992187 c 0 -1.179688 0.957031 -2.132813 2.132813 -2.128906 l 22.515625 0.007812 c 1.175781 0 2.128906 0.953125 2.128906 2.132812 l -0.003906 1.992188 c 0 1.179688 -0.957031 2.132812 -2.132813 2.128906 l -22.515625 -0.007812 c -1.175781 0 -2.128906 -0.957032 -2.128906 -2.132813 z m 0 0"/>
        <path d="m 27.851562 51.648438 h 1.9375 c 1.191407 0 2.15625 0.964843 2.15625 2.15625 v 11.648437 c 0 1.195313 -0.964843 2.160156 -2.15625 2.160156 h -1.9375 c -1.191406 0 -2.160156 -0.964843 -2.160156 -2.160156 v -11.648437 c 0 -1.191407 0.96875 -2.15625 2.160156 -2.15625 z m 0 0"/>
        <path d="m 37.851562 51.648438 h 1.9375 c 1.191407 0 2.15625 0.964843 2.15625 2.15625 v 11.648437 c 0 1.195313 -0.964843 2.160156 -2.15625 2.160156 h -1.9375 c -1.191406 0 -2.160156 -0.964843 -2.160156 -2.160156 v -11.648437 c 0 -1.191407 0.96875 -2.15625 2.160156 -2.15625 z m 0 0"/>
        <path d="m 47.851562 51.648438 h 1.9375 c 1.191407 0 2.15625 0.964843 2.15625 2.15625 v 11.648437 c 0 1.195313 -0.964843 2.160156 -2.15625 2.160156 h -1.9375 c -1.191406 0 -2.160156 -0.964843 -2.160156 -2.160156 v -11.648437 c 0 -1.191407 0.96875 -2.15625 2.160156 -2.15625 z m 0 0"/>
        <path d="m 72.046875 55.675781 l 0.003906 -1.992187 c 0 -1.179688 0.957031 -2.132813 2.132813 -2.128906 l 22.515625 0.007812 c 1.175781 0 2.128906 0.953125 2.128906 2.132812 l -0.003906 1.992188 c 0 1.179688 -0.957031 2.132812 -2.132813 2.128906 l -22.515625 -0.007812 c -1.175781 0 -2.128906 -0.957032 -2.128906 -2.132813 z m 0 0"/>
        <path d="m 27.851562 83.648438 h 1.9375 c 1.191407 0 2.15625 0.964843 2.15625 2.15625 v 11.648437 c 0 1.195313 -0.964843 2.160156 -2.15625 2.160156 h -1.9375 c -1.191406 0 -2.160156 -0.964843 -2.160156 -2.160156 v -11.648437 c 0 -1.191407 0.96875 -2.15625 2.160156 -2.15625 z m 0 0"/>
        <path d="m 37.851562 83.648438 h 1.9375 c 1.191407 0 2.15625 0.964843 2.15625 2.15625 v 11.648437 c 0 1.195313 -0.964843 2.160156 -2.15625 2.160156 h -1.9375 c -1.191406 0 -2.160156 -0.964843 -2.160156 -2.160156 v -11.648437 c 0 -1.191407 0.96875 -2.15625 2.160156 -2.15625 z m 0 0"/>
        <path d="m 47.851562 83.648438 h 1.9375 c 1.191407 0 2.15625 0.964843 2.15625 2.15625 v 11.648437 c 0 1.195313 -0.964843 2.160156 -2.15625 2.160156 h -1.9375 c -1.191406 0 -2.160156 -0.964843 -2.160156 -2.160156 v -11.648437 c 0 -1.191407 0.96875 -2.15625 2.160156 -2.15625 z m 0 0"/>
        <path d="m 72.046875 87.675781 l 0.003906 -1.992187 c 0 -1.179688 0.957031 -2.132813 2.132813 -2.128906 l 22.515625 0.007812 c 1.175781 0 2.128906 0.953125 2.128906 2.132812 l -0.003906 1.992188 c 0 1.179688 -0.957031 2.132812 -2.132813 2.128906 l -22.515625 -0.007812 c -1.175781 0 -2.128906 -0.957032 -2.128906 -2.132813 z m 0 0"/>
    </g>
</svg>
